<?xml version="1.0" encoding="utf-8"?>
<!-- Generator: Adobe Illustrator 23.0.1, SVG Export Plug-In . SVG Version: 6.00 Build 0)  -->
<svg version="1.1" id="Layer_1" xmlns="http://www.w3.org/2000/svg" xmlns:xlink="http://www.w3.org/1999/xlink" x="0px" y="0px"
	 viewBox="0 0 1242 2208" style="enable-background:new 0 0 1242 2208;" xml:space="preserve">
<style type="text/css">
	.st0{fill:url(#SVGID_1_);}
	.st1{fill:#FFFBE0;}
	.st2{fill:none;}
	.st3{fill:#FFBF59;}
	.st4{opacity:0.13;fill:#590800;}
	.st5{fill:#B70400;}
	.st6{fill:url(#SVGID_2_);}
	.st7{fill:url(#SVGID_3_);}
	.st8{fill:url(#SVGID_4_);}
	.st9{fill:url(#SVGID_5_);}
	.st10{fill:#CAE7EF;}
	.st11{fill:#FFFFFF;}
	.st12{fill:url(#SVGID_6_);}
	.st13{fill:#590800;}
	.st14{fill:url(#SVGID_7_);}
	.st15{fill:url(#SVGID_8_);}
	.st16{opacity:0.88;fill:#B70400;}
	.st17{fill:url(#SVGID_9_);}
	.st18{opacity:0.5;fill:#B70400;}
	.st19{fill:#5B1800;}
	.st20{fill:url(#SVGID_10_);}
	.st21{opacity:0.43;fill:#FFFFFF;}
	.st22{fill:url(#SVGID_11_);}
	.st23{fill:#8C130D;}
	.st24{fill:#FF5B57;}
	.st25{fill:#8C0000;}
	.st26{fill:url(#SVGID_12_);}
	.st27{opacity:0.26;fill:#FFFFFF;}
	.st28{fill:url(#SVGID_13_);}
	.st29{fill:url(#SVGID_14_);}
	.st30{fill:url(#SVGID_15_);}
	.st31{fill:url(#SVGID_16_);}
	.st32{fill:url(#SVGID_17_);}
	.st33{fill:#9CA000;}
	.st34{fill:url(#SVGID_18_);}
	.st35{fill:url(#SVGID_19_);}
	.st36{fill:#8B1229;}
	.st37{fill:#DCED00;}
	.st38{fill:#7A7A00;}
</style>
<linearGradient id="SVGID_1_" gradientUnits="userSpaceOnUse" x1="621" y1="2208" x2="621" y2="-9.094947e-13">
	<stop  offset="0" style="stop-color:#A8FFFF"/>
	<stop  offset="1" style="stop-color:#03E6FF"/>
</linearGradient>
<rect class="st0" width="1242" height="2208"/>
<path class="st1" d="M1242,2208H0v-522.7c414-84.8,828-84.8,1242,0V2208z"/>
<path class="st2" d="M1242,106.4v-5.2c-4.3,5.7-7,9.2-7,9.2S1237.7,108.8,1242,106.4z"/>
<path class="st2" d="M1242,139.8v-6.5c-2.5,1.5-4,2.4-4.2,2.5C1238.8,136.4,1240.2,137.8,1242,139.8z"/>
<path class="st3" d="M294.8,1619c0.6-3,1.3-6.5,2-10.5c3.9-22.8-1-59.5-13.3-60.3c-4.9-0.3-9.3,2.6-13.5,7.4
	c0.5,5.6,1.8,16.1,5.1,32C279,1606.4,289.5,1615.5,294.8,1619z"/>
<path class="st3" d="M294.8,1619c-5.3-3.5-15.8-12.6-19.7-31.4c-3.3-16-4.6-26.4-5.1-32c-6.4,7.1-12.3,18.3-18.7,28.1
	c-4.4,6.8-11.2,13.7-17.5,19.5c24,6.7,44.1,15,59.4,22.9C293.6,1624.1,294.2,1621.8,294.8,1619z"/>
<path class="st4" d="M294.8,1619c-5.3-3.5-15.8-12.6-19.7-31.4c-3.3-16-4.6-26.4-5.1-32c-6.4,7.1-12.3,18.3-18.7,28.1
	c-4.4,6.8-11.2,13.7-17.5,19.5c24,6.7,44.1,15,59.4,22.9C293.6,1624.1,294.2,1621.8,294.8,1619z"/>
<path class="st5" d="M386.4,1979.3c18.8,16.4,39.9,34.9,40.1,36.4c0.5,2.6-9.2,20.6-11.9,28.1c-2.8,7.5-6,19.3-3.1,20.6
	c2.9,1.4,5.7-2.1,6.9-8c1.2-5.8,8.3-13,9.6-11.9c1.4,1.1,2,16.1,2.6,22.8c0.6,6.7,0,21.3,3.4,20.6c3.4-0.6,3.8-9.9,4.7-17.3
	c0.9-7.3,0.8-19.1,0.8-19.1s1.7,14.1,2.9,20.6c1.2,6.6,0.3,22.6,4.3,22.8c4,0.2,4.3-6.6,4.6-23.2c0.3-16.7-2.6-22.9-2.6-22.9
	s4.7,8.9,8,22.2c3.2,13.3,2.6,24.6,6,24.8c3.4,0.2,6.1-7,2.9-25.7c-3.2-18.7-6.3-24.8-6.3-24.8s4.4,5.4,7.8,12.1
	c3.4,6.7,5.2,20.2,8.6,19c3.4-1.2,0.9-23.3-10.1-40.1c-20.5-31.5-24.9-34.9-33.1-46.7c-6.6-9.6-41.7-62.8-54.9-82.7
	C389.6,1933,389.4,1952.9,386.4,1979.3z"/>
<linearGradient id="SVGID_2_" gradientUnits="userSpaceOnUse" x1="193.1954" y1="1589.3273" x2="193.1954" y2="2363.6316">
	<stop  offset="0" style="stop-color:#F93D31"/>
	<stop  offset="1" style="stop-color:#B70400"/>
</linearGradient>
<path class="st6" d="M382.4,2012.2c1.4-12.3,2.9-23,4-32.8c-15.3-13.3-29-25.1-29-25.1s2.6-48.2,15.2-55c0,0,1.9,2.9,5,7.6
	c-4.6-9.9-10.9-20.7-19.6-33.1c-39.9-57.3-47.7-119.1-37.9-155c1.5-5.3,2.7-10.2,3.8-14.8c-1.2,1.7-2.4,3.4-3.8,5.1
	c-7.9,9.3-24.6,15.7-42.4,22.4c23.5,8.3,40.9,37.3,40.9,71.6c0,21.5-6.8,40.9-17.6,54.4c-0.2,0.3-0.4,0.5-0.6,0.8
	c8.9,2,14.9,4.4,14.9,4.4s-8-0.2-21.4,0.9c-2.8,0.2-6,0.5-9.3,0.9c-0.9,0.1-1.8,0.2-2.7,0.3h0c-2,0.3-4.2,0.5-6.4,0.9
	c-2.5,0.4-5,0.8-7.6,1.2c-5,0.9-9.5,1.7-13.6,2.4c-2.6,0.5-5,0.9-7.2,1.3c-1.5,0.3-2.9,0.5-4.2,0.8c-0.1,0-0.1-0.1-0.2-0.1
	c-0.2,0-0.4,0.1-0.5,0.1c-11.6,2.2-16.8,3.3-16.8,3.3s3.6-3.6,10.3-7.6c0.1-0.1,0.3-0.2,0.4-0.3c-16.1-12.9-26.9-36.6-26.9-63.7
	c0-13.9,2.8-26.9,7.8-38l9-21.9l-11,5c0,0,8.4-28.4,45.7-56c37.2-27.5,62-33.9,62-33.9l-19.3,21.1l26.1-6.2c0.7-8.8,0.3-15.3-1-20.8
	c-0.2-0.9-0.9-2.2-2.1-3.6c-27.1,5.9-93,17.6-164.9,9.4c-93.7-10.7-141.6-47.1-142.1-47.5c-6.9,2.2-13.3,4.6-19.1,7.3v342
	c2.4-8.8,6.5-14.6,11.8-15.4c0.8-0.1,1.6-0.1,2.4,0c0.7-0.3,1.5-0.6,2.3-0.7c11.2-1.6,23.5,19.8,27.5,47.8c4,28-1.8,52-13,53.6
	c-0.8,0.1-1.6,0.1-2.4,0c-0.7,0.3-1.5,0.6-2.3,0.7c-0.7,0.1-1.5,0.1-2.3,0c27.7,73.6,56.5,141.8,96.7,150.3
	c65.2,13.8,124-11.4,160.6,11.5h78c0.1-1.9,0.2-3.9,0.2-5.8C361.2,2131.2,375.9,2070,382.4,2012.2z M244.6,2116.5
	c-33.7-1.9-54.6-37.7-54.6-37.7s38.2,17.7,85.2,0c46.9-17.7,53.1-66.7,53.1-66.7s-0.4,8.2-3.5,19.4
	C324,2034.8,307,2120.1,244.6,2116.5z M316.2,1976.5c0,0,11.4,40.5-16.5,76.8c-28.7,37.2-90.1,22.9-90.1,22.9s52.2,1.2,80.7-30.2
	C318.8,2014.6,316.2,1976.5,316.2,1976.5z M315,1955.6c1.5-0.1,3,4,3.4,9.2c0.4,5.2-0.4,9.5-1.9,9.7c-1.5,0.1-3-4-3.4-9.2
	C312.7,1960,313.5,1955.7,315,1955.6z M315.9,1942.8l15.7-43.6c0,0-18.2-9.4-82.2,2.4c-32.8,6.1-72.7,24.1-103.5,40.1
	c-3.3,2-6.6,3.8-10.1,5.3c-23.1,12.4-38.9,22.3-38.9,22.3s8.3-7.1,22.3-17.3c-3.9,0.7-7.8,1-11.8,1c-50.9,0-92.2-55.5-92.2-124
	c0-39.8,13.9-75.2,35.6-97.9c-8.4-0.7-13.7-1-13.7-1l18.6-8.6c0,0-7-2.2-15.9-12.2c-6.9-7.8-17.7-33.6-17.7-33.6s37.2,5,79.2,11.6
	c58.4,9.2,86.9,43.7,86.9,43.7l-11.9-0.6c0,0,13.6,22.9,15.2,37c0,0-2-1.3-5.4-3.3c8.6,18.9,13.6,41.1,13.6,64.9
	c0,35.8-11.3,68-29.3,90.6c9.3-5,19.1-10,29.4-14.5l-0.1,0l3-39.7l22.4,29.8c7.3-2.4,14.6-4.6,22.1-6.4c40.8-9.7,66.3-10.7,81.3-9.3
	l-2.4-0.5l9.8-27.4l8.9,31.1c1.9,0.7,2.7,1.2,2.7,1.2L315.9,1942.8z"/>
<linearGradient id="SVGID_3_" gradientUnits="userSpaceOnUse" x1="324.224" y1="1589.3273" x2="324.224" y2="2363.6316">
	<stop  offset="0" style="stop-color:#F93D31"/>
	<stop  offset="1" style="stop-color:#B70400"/>
</linearGradient>
<path class="st7" d="M323.8,2034.3c0.4-1.3,0.7-2.2,0.8-2.6C324.4,2032.5,324.1,2033.4,323.8,2034.3z"/>
<linearGradient id="SVGID_4_" gradientUnits="userSpaceOnUse" x1="204.44" y1="1589.3273" x2="204.44" y2="2363.6316">
	<stop  offset="0" style="stop-color:#F93D31"/>
	<stop  offset="1" style="stop-color:#B70400"/>
</linearGradient>
<path class="st8" d="M189.9,2078.8c0,0,9.3,9.2,29,12C201.6,2086.2,189.9,2078.8,189.9,2078.8z"/>
<path class="st5" d="M357.4,1954.3c0,0,13.8,11.8,29,25.1c3-26.4,3.2-46.3-8.9-72.5c-3.1-4.7-5-7.6-5-7.6
	C360,1906.1,357.4,1954.3,357.4,1954.3z"/>
<linearGradient id="SVGID_5_" gradientUnits="userSpaceOnUse" x1="372.7395" y1="1589.3273" x2="372.7395" y2="2363.6316">
	<stop  offset="0" style="stop-color:#F93D31"/>
	<stop  offset="1" style="stop-color:#B70400"/>
</linearGradient>
<path class="st9" d="M357.4,1954.3c0,0,13.8,11.8,29,25.1c3-26.4,3.2-46.3-8.9-72.5c-3.1-4.7-5-7.6-5-7.6
	C360,1906.1,357.4,1954.3,357.4,1954.3z"/>
<path class="st5" d="M146,1941.7c-3.5,1.8-6.9,3.6-10.1,5.3C139.4,1945.5,142.7,1943.7,146,1941.7z"/>
<path class="st5" d="M199.6,1829.1c0-23.8-5-46-13.6-64.9c-2.9-1.7-6.7-3.9-11.4-6.3c11.7,19.3,18.8,44.1,18.8,71.2
	c0,61.7-36.7,111.7-82,111.7s-82-50-82-111.7c0-41,16.2-76.8,40.3-96.2c-7.1-0.7-13.6-1.2-18.8-1.6c-21.6,22.7-35.6,58.1-35.6,97.9
	c0,68.5,41.3,124,92.2,124c4,0,8-0.3,11.8-1c12.8-9.3,30.5-21.1,51.1-32.3C188.3,1897.1,199.6,1864.9,199.6,1829.1z"/>
<path class="st5" d="M216.5,1765.4l0.1-0.3c-4.9,11.1-7.8,24.1-7.8,38c0,27.1,10.8,50.8,26.9,63.7c0.6-0.4,1.2-0.8,2-1.2
	c-13.7-10.7-23-30.9-23-54c0-34.3,20.4-62.2,45.7-62.2c21.4,0,39.3,20,44.2,47.1c0.9,4.8,1.4,9.9,1.4,15.1c0,5.1-0.5,10.1-1.4,14.9
	c-2.1,11.7-6.6,22.2-12.8,30.2c2.5,0.4,4.8,0.8,7,1.3c0.4,0.1,0.9,0.2,1.3,0.3c0.2-0.3,0.4-0.5,0.6-0.8
	c10.8-13.5,17.6-32.9,17.6-54.4c0-34.4-17.4-63.3-40.9-71.6c-15.9,5.9-32.5,12.1-44.5,20.5C223.3,1758.8,216.5,1765.4,216.5,1765.4z
	"/>
<path class="st5" d="M253.1,1869.3c-2.5,0.4-4.9,0.9-7.1,1.3c-1.3,0.2-2.5,0.4-3.6,0.6c0.1,0,0.1,0.1,0.2,0.1
	c1.3-0.3,2.7-0.5,4.2-0.8c2.2-0.4,4.6-0.9,7.2-1.3c4.1-0.8,8.6-1.6,13.6-2.4c2.6-0.5,5.2-0.9,7.6-1.2c-2.8,0.4-5.8,0.9-8.8,1.4
	C261.5,1867.8,257.1,1868.6,253.1,1869.3z"/>
<path class="st10" d="M193.4,1829.1c0-27.1-7.1-51.9-18.8-71.2c-0.6-0.3-1.3-0.6-1.9-1C185.5,1775.9,193.4,1801.2,193.4,1829.1z"/>
<path class="st10" d="M115.2,1935.5c-43.2,0-78.2-47.6-78.2-106.4c0-41.7,17.6-77.7,43.2-95.2c-3.6-0.4-7.2-0.7-10.6-1
	c-24.1,19.4-40.3,55.3-40.3,96.2c0,61.7,36.7,111.7,82,111.7s82-50,82-111.7C193.4,1887.9,158.4,1935.5,115.2,1935.5z"/>
<path class="st11" d="M123.6,1739.6c-13.2-2.3-28.9-4.2-43.3-5.7c-25.6,17.5-43.2,53.5-43.2,95.2c0,58.8,35,106.4,78.2,106.4
	c43.2,0,78.1-47.6,78.1-106.4c0-27.8-7.9-53.2-20.7-72.2C159.8,1750.4,141.9,1742.8,123.6,1739.6z M145.6,1889.5
	c-17.9,0-33.4-14.5-40.4-35.4c-0.5,0-1,0-1.5,0c-13.9,0-25.1-11.2-25.1-25.1c0-13.8,11.2-25.1,25.1-25.1c0.5,0,1,0,1.5,0
	c7-20.9,22.4-35.4,40.4-35.4c24.5,0,44.4,27,44.4,60.4C189.9,1862.4,170.1,1889.5,145.6,1889.5z"/>
<path class="st11" d="M145.6,1768.7c-17.9,0-33.4,14.5-40.4,35.4c7.2,0.4,13.5,3.9,17.8,9c4.7-16,16.1-27.2,29.5-27.2
	c17.5,0,31.7,19.4,31.7,43.2c0,23.9-14.2,43.2-31.7,43.2c-13.4,0-24.8-11.3-29.5-27.2c-4.3,5.2-10.7,8.6-17.8,9
	c7,20.9,22.4,35.4,40.4,35.4c24.5,0,44.4-27,44.4-60.4C189.9,1795.7,170.1,1768.7,145.6,1768.7z"/>
<linearGradient id="SVGID_6_" gradientUnits="userSpaceOnUse" x1="101.2109" y1="1829.0743" x2="189.937" y2="1829.0743">
	<stop  offset="0" style="stop-color:#A43113"/>
	<stop  offset="1" style="stop-color:#6F160D"/>
</linearGradient>
<path class="st12" d="M145.6,1768.7c-17.9,0-33.4,14.5-40.4,35.4c7.2,0.4,13.5,3.9,17.8,9c4.7-16,16.1-27.2,29.5-27.2
	c17.5,0,31.7,19.4,31.7,43.2c0,23.9-14.2,43.2-31.7,43.2c-13.4,0-24.8-11.3-29.5-27.2c-4.3,5.2-10.7,8.6-17.8,9
	c7,20.9,22.4,35.4,40.4,35.4c24.5,0,44.4-27,44.4-60.4C189.9,1795.7,170.1,1768.7,145.6,1768.7z"/>
<path class="st13" d="M123,1845.1c4.7,16,16.1,27.2,29.5,27.2c17.5,0,31.7-19.4,31.7-43.2c0-23.9-14.2-43.2-31.7-43.2
	c-13.4,0-24.8,11.3-29.5,27.2c3.6,4.3,5.8,9.9,5.8,16C128.8,1835.1,126.6,1840.7,123,1845.1z M143.3,1831.8c5.1,0,9.2,4.1,9.2,9.2
	c0,5.1-4.1,9.2-9.2,9.2c-5.1,0-9.2-4.1-9.2-9.2C134.2,1835.9,138.3,1831.8,143.3,1831.8z"/>
<path class="st11" d="M123,1845.1c3.6-4.3,5.8-9.9,5.8-16c0-6.1-2.2-11.6-5.8-16c-4.3-5.2-10.7-8.6-17.8-9c-0.5,0-1,0-1.5,0
	c-13.9,0-25.1,11.2-25.1,25.1c0,13.8,11.2,25.1,25.1,25.1c0.5,0,1,0,1.5,0C112.4,1853.7,118.7,1850.3,123,1845.1z"/>
<ellipse transform="matrix(0.1602 -0.9871 0.9871 0.1602 -1696.8574 1687.5885)" class="st11" cx="143.3" cy="1841" rx="9.2" ry="9.2"/>
<path class="st10" d="M220.5,1826.8c0,0,0-0.1,0-0.1c-0.9-1.7-1.4-3.6-1.4-5.7c0-0.9,0.1-1.7,0.3-2.6c0,0,0,0,0,0v0
	c-0.2-2.3-0.3-4.5-0.3-6.8c0-32.7,19.5-59.2,43.5-59.2c20.2,0,37.1,18.7,42.1,44.1c-4.9-27.1-22.9-47.1-44.2-47.1
	c-25.2,0-45.7,27.8-45.7,62.2c0,23.1,9.2,43.3,23,54c1.2-0.7,2.5-1.4,4-2.1C231.4,1855.8,223.6,1842.6,220.5,1826.8z"/>
<path class="st10" d="M291.9,1856.6c6.2-8,10.8-18.4,12.8-30.2c-2.3,11.9-7.1,22.3-13.7,30C291.2,1856.5,291.6,1856.6,291.9,1856.6z
	"/>
<path class="st11" d="M262.6,1752.3c-24,0-43.5,26.5-43.5,59.2c0,2.3,0.1,4.6,0.3,6.8v0c0,0,0,0,0,0c0.3-1.3,0.8-2.6,1.5-3.7
	c1.3-17,11.8-30.2,24.6-30.2c13.6,0,24.7,15.1,24.7,33.6c0,18.6-11.1,33.6-24.7,33.6c-10.9,0-20.2-9.6-23.4-23
	c-0.6-0.7-1.1-1.4-1.5-2.1c0,0,0,0.1,0,0.1c3.1,15.8,10.9,29,21.2,36.7c6-2.9,13.5-5.7,22.3-7.2c9.1-1.6,18.6-1.1,26.9,0.1
	c6.6-7.8,11.5-18.2,13.7-30c0.9-4.7,1.4-9.7,1.4-14.9c0-5.2-0.5-10.3-1.4-15.1C299.7,1771,282.7,1752.3,262.6,1752.3z"/>
<path class="st11" d="M224.2,1811.2c2.5-9.1,9-15.6,16.5-15.6c9.8,0,17.7,10.8,17.7,24.1c0,3.2-0.5,6.3-1.3,9.1
	c-0.1,0.5-0.2,1-0.5,1.4c-2.9,8-8.9,13.6-15.9,13.6c-6.6,0-12.3-4.9-15.3-12.1c-1.3-0.7-2.5-1.6-3.5-2.8c3.3,13.4,12.5,23,23.4,23
	c13.6,0,24.7-15.1,24.7-33.6c0-18.6-11.1-33.6-24.7-33.6c-12.8,0-23.3,13.2-24.6,30.2C221.7,1813.3,222.9,1812.1,224.2,1811.2z"/>
<linearGradient id="SVGID_7_" gradientUnits="userSpaceOnUse" x1="220.7191" y1="1818.1772" x2="270.0906" y2="1818.1772">
	<stop  offset="0" style="stop-color:#A43113"/>
	<stop  offset="1" style="stop-color:#6F160D"/>
</linearGradient>
<path class="st14" d="M224.2,1811.2c2.5-9.1,9-15.6,16.5-15.6c9.8,0,17.7,10.8,17.7,24.1c0,3.2-0.5,6.3-1.3,9.1
	c-0.1,0.5-0.2,1-0.5,1.4c-2.9,8-8.9,13.6-15.9,13.6c-6.6,0-12.3-4.9-15.3-12.1c-1.3-0.7-2.5-1.6-3.5-2.8c3.3,13.4,12.5,23,23.4,23
	c13.6,0,24.7-15.1,24.7-33.6c0-18.6-11.1-33.6-24.7-33.6c-12.8,0-23.3,13.2-24.6,30.2C221.7,1813.3,222.9,1812.1,224.2,1811.2z"/>
<path class="st13" d="M240.8,1843.7c7,0,13-5.5,15.9-13.6c-0.8,1.7-2.6,2.8-4.6,2.8c-2.8,0-5.1-2.3-5.1-5.1c0-2.8,2.3-5.1,5.1-5.1
	c2.8,0,5.1,2.3,5.1,5.1c0,0.3,0,0.6-0.1,0.8c0.8-2.8,1.3-5.9,1.3-9.1c0-13.3-7.9-24.1-17.7-24.1c-7.6,0-14,6.5-16.5,15.6
	c1.9-1.3,4.2-2.1,6.7-2.1c6.6,0,11.9,5.3,11.9,11.9c0,6.6-5.3,11.9-11.9,11.9c-2,0-3.9-0.5-5.5-1.4
	C228.5,1838.8,234.2,1843.7,240.8,1843.7z"/>
<path class="st11" d="M225.5,1831.6c1.6,0.9,3.5,1.4,5.5,1.4c6.6,0,11.9-5.3,11.9-11.9c0-6.6-5.3-11.9-11.9-11.9
	c-2.5,0-4.8,0.8-6.7,2.1c-1.4,0.9-2.5,2.2-3.4,3.6c-0.7,1.1-1.2,2.3-1.5,3.7c-0.2,0.8-0.3,1.7-0.3,2.6c0,2.1,0.5,4,1.4,5.7
	c0.4,0.8,0.9,1.5,1.5,2.1C223,1829.9,224.1,1830.9,225.5,1831.6z"/>
<path class="st11" d="M252.1,1822.7c-2.8,0-5.1,2.3-5.1,5.1c0,2.8,2.3,5.1,5.1,5.1c2,0,3.7-1.2,4.6-2.8c0.2-0.4,0.4-0.9,0.5-1.4
	c0-0.3,0.1-0.6,0.1-0.8C257.2,1825,254.9,1822.7,252.1,1822.7z"/>
<path class="st13" d="M322.4,1658.3c0,0-24.8,6.4-62,33.9c-37.2,27.5-45.7,56-45.7,56l11-5l-9,21.9l-0.1,0.3c0,0,6.7-6.5,16.6-13.5
	c11.9-8.4,28.6-14.5,44.5-20.5c17.8-6.7,34.5-13.1,42.4-22.4c1.4-1.6,2.6-3.3,3.8-5.1c10-15,11.7-32.2,11.7-32.2l-6.3,1.5l-26.1,6.2
	L322.4,1658.3z M311.9,1684.3c0,0-23.1,8.9-45.1,23.3c-20.7,13.7-33.6,31.3-33.6,31.3l1.8-9.4l-7.6,1.7c0,0,11.4-14.4,24.5-26.3
	c15.7-14.4,36.7-24.2,36.7-24.2l-7.1,10.4L311.9,1684.3z"/>
<path class="st13" d="M80.2,1733.9c14.4,1.5,30.1,3.4,43.3,5.7c18.3,3.2,36.3,10.8,49.1,17.3c0.6,0.3,1.3,0.7,1.9,1
	c4.6,2.4,8.5,4.6,11.4,6.3c3.5,2,5.4,3.3,5.4,3.3c-1.6-14.1-15.2-37-15.2-37l11.9,0.6c0,0-28.5-34.6-86.9-43.7
	c-42-6.6-79.2-11.6-79.2-11.6s10.8,25.9,17.7,33.6c8.9,10,15.9,12.2,15.9,12.2l-18.6,8.6c0,0,5.3,0.3,13.7,1
	c5.3,0.4,11.7,1,18.8,1.6C73,1733.2,76.6,1733.5,80.2,1733.9z M39.7,1688.2l34.3,6.1l-28.1-11.6c0,0,41,2.9,75,12.4
	c33.9,9.5,50.8,26.5,50.8,26.5l-10.8-3.1l8.4,15.4c0,0-42.8-19.9-77.3-27.3C57.4,1699.4,39.7,1688.2,39.7,1688.2z"/>
<linearGradient id="SVGID_8_" gradientUnits="userSpaceOnUse" x1="140.6598" y1="1589.3273" x2="140.6598" y2="2363.6316">
	<stop  offset="0" style="stop-color:#F93D31"/>
	<stop  offset="1" style="stop-color:#B70400"/>
</linearGradient>
<path class="st15" d="M120.7,2196.5c-40.2-8.5-69-76.7-96.7-150.3c-9.6-1.2-19.5-18.1-24.1-40.7v43.8c0.3-0.1,0.5-0.2,0.8-0.2
	c0.5-0.1,1,0,1.5,0.1c0.3-0.1,0.6-0.2,0.9-0.2c5-0.7,10.5,8.8,12.3,21.3c1.8,12.5-0.8,23.1-5.8,23.8c-0.5,0.1-1,0-1.5-0.1
	c-0.3,0.1-0.6,0.2-0.9,0.2c-2.5,0.4-5.1-1.8-7.3-5.6v40.4c4.7,0.4,9.7,9.5,11.4,21.3c1.8,12.5-0.8,23.1-5.8,23.8
	c-0.6,0.1-1.1,0-1.7-0.2c-0.2,0.1-0.4,0.1-0.6,0.2c-1.1,0.2-2.2-0.2-3.2-0.9v34.8h281.3C244.7,2185.1,185.9,2210.3,120.7,2196.5z
	 M31.6,2131.9c-0.4,0.1-0.8,0-1.2-0.1c-0.1,0-0.3,0.1-0.4,0.1c-3.4,0.5-7.1-6-8.3-14.4c-1.2-8.4,0.6-15.6,3.9-16.1
	c0.4-0.1,0.8,0,1.2,0.1c0.1,0,0.3-0.1,0.4-0.1c3.4-0.5,7.1,6,8.3,14.4C36.8,2124.2,35,2131.4,31.6,2131.9z"/>
<path class="st16" d="M120.7,2196.5c-40.2-8.5-69-76.7-96.7-150.3c-9.6-1.2-19.5-18.1-24.1-40.7v43.8c0.3-0.1,0.5-0.2,0.8-0.2
	c0.5-0.1,1,0,1.5,0.1c0.3-0.1,0.6-0.2,0.9-0.2c5-0.7,10.5,8.8,12.3,21.3c1.8,12.5-0.8,23.1-5.8,23.8c-0.5,0.1-1,0-1.5-0.1
	c-0.3,0.1-0.6,0.2-0.9,0.2c-2.5,0.4-5.1-1.8-7.3-5.6v40.4c4.7,0.4,9.7,9.5,11.4,21.3c1.8,12.5-0.8,23.1-5.8,23.8
	c-0.6,0.1-1.1,0-1.7-0.2c-0.2,0.1-0.4,0.1-0.6,0.2c-1.1,0.2-2.2-0.2-3.2-0.9v34.8h281.3C244.7,2185.1,185.9,2210.3,120.7,2196.5z
	 M31.6,2131.9c-0.4,0.1-0.8,0-1.2-0.1c-0.1,0-0.3,0.1-0.4,0.1c-3.4,0.5-7.1-6-8.3-14.4c-1.2-8.4,0.6-15.6,3.9-16.1
	c0.4-0.1,0.8,0,1.2,0.1c0.1,0,0.3-0.1,0.4-0.1c3.4-0.5,7.1,6,8.3,14.4C36.8,2124.2,35,2131.4,31.6,2131.9z"/>
<linearGradient id="SVGID_9_" gradientUnits="userSpaceOnUse" x1="257.2881" y1="1589.3273" x2="257.2881" y2="2363.6316">
	<stop  offset="0" style="stop-color:#F93D31"/>
	<stop  offset="1" style="stop-color:#B70400"/>
</linearGradient>
<path class="st17" d="M323.8,2034.3c-5.3,17.3-17.2,40.3-43.4,52.4c-22.3,10.3-44.6,8.5-61.5,4.1c-19.7-2.8-29-12-29-12
	s21,35.8,54.6,37.7c62.4,3.6,79.4-81.7,80.1-85c0,0,0,0.1,0,0.1C324.5,2032.1,324.3,2033,323.8,2034.3z"/>
<path class="st18" d="M323.8,2034.3c-5.3,17.3-17.2,40.3-43.4,52.4c-22.3,10.3-44.6,8.5-61.5,4.1c-19.7-2.8-29-12-29-12
	s21,35.8,54.6,37.7c62.4,3.6,79.4-81.7,80.1-85c0,0,0,0.1,0,0.1C324.5,2032.1,324.3,2033,323.8,2034.3z"/>
<path class="st19" d="M275.1,2078.8c-46.9,17.7-85.2,0-85.2,0s11.6,7.4,29,12c16.9,4.4,39.2,6.2,61.5-4.1
	c26.2-12.1,38-35.1,43.4-52.4c0.3-0.9,0.5-1.8,0.8-2.6c0,0,0-0.1,0-0.1c3.2-11.2,3.5-19.4,3.5-19.4S322.1,2061.1,275.1,2078.8z"/>
<linearGradient id="SVGID_10_" gradientUnits="userSpaceOnUse" x1="263.9957" y1="1589.3273" x2="263.9957" y2="2363.6316">
	<stop  offset="0" style="stop-color:#F93D31"/>
	<stop  offset="1" style="stop-color:#B70400"/>
</linearGradient>
<path class="st20" d="M209.5,2076.2c0,0,61.4,14.2,90.1-22.9c28-36.3,16.5-76.8,16.5-76.8s2.6,38.1-25.9,69.5
	C261.7,2077.4,209.5,2076.2,209.5,2076.2z"/>
<path class="st21" d="M209.5,2076.2c0,0,61.4,14.2,90.1-22.9c28-36.3,16.5-76.8,16.5-76.8s2.6,38.1-25.9,69.5
	C261.7,2077.4,209.5,2076.2,209.5,2076.2z"/>
<linearGradient id="SVGID_11_" gradientUnits="userSpaceOnUse" x1="315.732" y1="1589.3273" x2="315.732" y2="2363.6316">
	<stop  offset="0" style="stop-color:#F93D31"/>
	<stop  offset="1" style="stop-color:#B70400"/>
</linearGradient>
<path class="st22" d="M316.5,1974.5c1.5-0.1,2.3-4.4,1.9-9.7c-0.4-5.2-1.9-9.4-3.4-9.2c-1.5,0.1-2.3,4.4-1.9,9.7
	C313.5,1970.5,315,1974.6,316.5,1974.5z"/>
<path class="st21" d="M316.5,1974.5c1.5-0.1,2.3-4.4,1.9-9.7c-0.4-5.2-1.9-9.4-3.4-9.2c-1.5,0.1-2.3,4.4-1.9,9.7
	C313.5,1970.5,315,1974.6,316.5,1974.5z"/>
<path class="st11" d="M202.6,1865.6l-3,39.7l0.1,0c8.2-3.6,16.7-6.9,25.3-9.9L202.6,1865.6z"/>
<path class="st11" d="M335.7,1851.8l-9.8,27.4l2.4,0.5c8.3,0.7,13.5,2.2,16.3,3.2L335.7,1851.8z"/>
<path class="st13" d="M328.4,1879.7c-15.1-1.3-40.5-0.4-81.3,9.3c-7.4,1.8-14.8,3.9-22.1,6.4c-8.6,2.9-17.1,6.3-25.3,9.9
	c-10.3,4.5-20.1,9.4-29.4,14.5c-20.5,11.2-38.2,23-51.1,32.3c-14,10.1-22.3,17.3-22.3,17.3s15.9-9.9,38.9-22.3
	c3.2-1.7,6.6-3.5,10.1-5.3c30.8-15.9,70.7-34,103.5-40.1c64-11.8,82.2-2.4,82.2-2.4l-15.7,43.6l31.4-58.7c0,0-0.8-0.5-2.7-1.2
	C341.8,1881.9,336.7,1880.4,328.4,1879.7z"/>
<path class="st23" d="M288.6,1680.8c0,0-20.9,9.8-36.7,24.2c-13,11.9-24.5,26.3-24.5,26.3l7.6-1.7l-1.8,9.4c0,0,12.9-17.6,33.6-31.3
	c21.9-14.5,45.1-23.3,45.1-23.3l-30.4,6.9L288.6,1680.8z"/>
<path class="st23" d="M169.1,1734l-8.4-15.4l10.8,3.1c0,0-16.9-17-50.8-26.5c-33.9-9.5-75-12.4-75-12.4l28.1,11.6l-34.3-6.1
	c0,0,17.7,11.2,52.2,18.6C126.3,1714.1,169.1,1734,169.1,1734z"/>
<path class="st5" d="M291.9,1856.6c-0.3,0-0.6-0.1-0.9-0.1c-8.3-1.2-17.8-1.7-26.9-0.1c-8.9,1.5-16.3,4.3-22.3,7.2
	c-1.4,0.7-2.7,1.4-4,2.1c-0.7,0.4-1.3,0.8-2,1.2c-0.1,0.1-0.3,0.2-0.4,0.3c-6.7,4.1-10.3,7.6-10.3,7.6s5.2-1.1,16.8-3.3
	c0.2,0,0.4-0.1,0.5-0.1c1.1-0.2,2.3-0.4,3.6-0.6c2.2-0.4,4.6-0.8,7.1-1.3c4-0.7,8.4-1.5,13.4-2.3c3.1-0.5,6-1,8.8-1.4
	c2.2-0.3,4.3-0.6,6.4-0.9h0c0.9-0.1,1.8-0.2,2.7-0.3c3.3-0.4,6.5-0.7,9.3-0.9c13.4-1.1,21.4-0.9,21.4-0.9s-6-2.4-14.9-4.4
	c-0.4-0.1-0.8-0.2-1.3-0.3C296.7,1857.4,294.4,1857,291.9,1856.6z"/>
<path class="st24" d="M2.4,2049.1c-0.5-0.1-1-0.2-1.5-0.1c-0.3,0-0.6,0.1-0.8,0.2v1.9C0.7,2050.1,1.5,2049.5,2.4,2049.1z"/>
<path class="st24" d="M7.3,2094.1c0.3,0,0.6-0.1,0.9-0.2c-3-0.8-6-4.8-8.1-10.7v5.3C2.2,2092.3,4.8,2094.5,7.3,2094.1z"/>
<path class="st25" d="M8.1,2093.9c0.5,0.1,1,0.2,1.5,0.1c5-0.7,7.6-11.4,5.8-23.8c-1.8-12.5-7.3-22-12.3-21.3
	c-0.3,0-0.6,0.1-0.9,0.2c-0.9,0.3-1.7,1-2.4,2v32.1C2.2,2089.1,5.2,2093.1,8.1,2093.9z"/>
<path class="st24" d="M3.2,2174.1c0.2,0,0.4-0.1,0.6-0.2c-1.3-0.4-2.6-1.4-3.9-3v2.2C1.1,2173.9,2.2,2174.2,3.2,2174.1z"/>
<path class="st25" d="M3.9,2173.9c0.6,0.2,1.2,0.2,1.7,0.2c5-0.7,7.6-11.4,5.8-23.8c-1.7-11.7-6.7-20.9-11.4-21.3v42
	C1.2,2172.5,2.6,2173.5,3.9,2173.9z"/>
<path class="st24" d="M23.3,2117.5c-1.2-8.1,0.4-15,3.5-16c-0.4-0.1-0.8-0.2-1.2-0.1c-3.4,0.5-5.1,7.7-3.9,16.1
	c1.2,8.4,4.9,14.9,8.3,14.4c0.1,0,0.3-0.1,0.4-0.1C27.4,2130.9,24.4,2125,23.3,2117.5z"/>
<path class="st25" d="M27.3,2101.4c-0.1,0-0.3,0.1-0.4,0.1c-3.1,1-4.7,7.9-3.5,16c1.1,7.4,4.1,13.3,7.1,14.3
	c0.4,0.1,0.8,0.2,1.2,0.1c3.4-0.5,5.1-7.7,3.9-16.1C34.3,2107.4,30.6,2100.9,27.3,2101.4z"/>
<path class="st24" d="M24.1,2046.2c0.8,0.1,1.5,0.1,2.3,0c0.8-0.1,1.5-0.3,2.3-0.7c-10.5-1.4-21.4-21.7-25.2-47.8
	c-3.7-26,1.1-48.6,10.8-52.9c-0.8-0.1-1.6-0.1-2.4,0c-5.3,0.8-9.4,6.5-11.8,15.4v45.3C4.5,2028.1,14.5,2045,24.1,2046.2z"/>
<path class="st25" d="M3.4,1997.7c3.7,26,14.6,46.3,25.2,47.8c0.8,0.1,1.6,0.1,2.4,0c11.2-1.6,17-25.6,13-53.6
	c-4-28-16.3-49.4-27.5-47.8c-0.8,0.1-1.5,0.3-2.3,0.7C4.5,1949.1-0.3,1971.7,3.4,1997.7z"/>
<linearGradient id="SVGID_12_" gradientUnits="userSpaceOnUse" x1="172.572" y1="1589.3273" x2="172.572" y2="2363.6316">
	<stop  offset="0" style="stop-color:#F93D31"/>
	<stop  offset="1" style="stop-color:#B70400"/>
</linearGradient>
<path class="st26" d="M161.2,1658.3c71.9,8.2,137.8-3.5,164.9-9.4c-4.5-5.4-15.8-13.9-32.9-22.8c-0.5,1.8-0.9,3.4-1.3,4.7
	c-1.4,4.6-2.3,6.1-2.3,6.1l-73.1-19.5c0,0,2.7-2,6.7-5.2c3-2.4,6.7-5.5,10.6-9.1c-24.8-6.9-53.8-12.1-86.3-13.5
	c-3.5,0.2-77.5,4.7-128.4,21.2C19.5,1611.2,67.5,1647.7,161.2,1658.3z"/>
<path class="st27" d="M161.2,1658.3c71.9,8.2,137.8-3.5,164.9-9.4c-4.5-5.4-15.8-13.9-32.9-22.8c-0.5,1.8-0.9,3.4-1.3,4.7
	c-1.4,4.6-2.3,6.1-2.3,6.1l-73.1-19.5c0,0,2.7-2,6.7-5.2c3-2.4,6.7-5.5,10.6-9.1c-24.8-6.9-53.8-12.1-86.3-13.5
	c-3.5,0.2-77.5,4.7-128.4,21.2C19.5,1611.2,67.5,1647.7,161.2,1658.3z"/>
<path class="st3" d="M216.4,1617.5l73.1,19.5c0,0,0.9-1.5,2.3-6.1l-68.7-18.5C219.1,1615.5,216.4,1617.5,216.4,1617.5z"/>
<linearGradient id="SVGID_13_" gradientUnits="userSpaceOnUse" x1="254.1102" y1="1589.3273" x2="254.1102" y2="2363.6316">
	<stop  offset="0" style="stop-color:#F93D31"/>
	<stop  offset="1" style="stop-color:#B70400"/>
</linearGradient>
<path class="st28" d="M216.4,1617.5l73.1,19.5c0,0,0.9-1.5,2.3-6.1l-68.7-18.5C219.1,1615.5,216.4,1617.5,216.4,1617.5z"/>
<path class="st27" d="M216.4,1617.5l73.1,19.5c0,0,0.9-1.5,2.3-6.1l-68.7-18.5C219.1,1615.5,216.4,1617.5,216.4,1617.5z"/>
<path class="st3" d="M291.8,1630.8c0.4-1.3,0.8-2.9,1.3-4.7c-15.3-8-35.4-16.2-59.4-22.9c-3.9,3.5-7.6,6.7-10.6,9.1L291.8,1630.8z"
	/>
<path class="st4" d="M291.8,1630.8c0.4-1.3,0.8-2.9,1.3-4.7c-15.3-8-35.4-16.2-59.4-22.9c-3.9,3.5-7.6,6.7-10.6,9.1L291.8,1630.8z"
	/>
<linearGradient id="SVGID_14_" gradientUnits="userSpaceOnUse" x1="258.1183" y1="1589.3273" x2="258.1183" y2="2363.6316">
	<stop  offset="0" style="stop-color:#F93D31"/>
	<stop  offset="1" style="stop-color:#B70400"/>
</linearGradient>
<path class="st29" d="M291.8,1630.8c0.4-1.3,0.8-2.9,1.3-4.7c-15.3-8-35.4-16.2-59.4-22.9c-3.9,3.5-7.6,6.7-10.6,9.1L291.8,1630.8z"
	/>
<path class="st27" d="M291.8,1630.8c0.4-1.3,0.8-2.9,1.3-4.7c-15.3-8-35.4-16.2-59.4-22.9c-3.9,3.5-7.6,6.7-10.6,9.1L291.8,1630.8z"
	/>
<path class="st13" d="M147.4,1589.7c0.1,0,0.1,0,0.1,0l56.6-30.4c0,0-8.5-3.7-32.6-5c-25.4-1.4-35.5,0.6-35.5,0.6l77.4-25.7
	c0,0-11.6-5.8-45.6-3.1c-23.3,1.9-35,5.2-35,5.2l51.3-26.3c0,0-44.2-6.3-113,34c-35.6,20.9-59.5,51.5-71.3,69.2v9.8
	c5.8-2.7,12.2-5.1,19.1-7.3C70,1594.4,143.9,1589.9,147.4,1589.7z"/>
<linearGradient id="SVGID_15_" gradientUnits="userSpaceOnUse" x1="1788.3368" y1="1908.118" x2="1788.3368" y2="2448.9255" gradientTransform="matrix(0.7509 -0.6605 0.6605 0.7509 -1568.9117 -72.9049)">
	<stop  offset="0" style="stop-color:#DCED00"/>
	<stop  offset="1" style="stop-color:#9CA000"/>
</linearGradient>
<path class="st30" d="M1237.8,135.7C1237.8,135.7,1237.8,135.8,1237.8,135.7l-24.1-6.6c0,0-0.2-0.6-0.5-1.6
	c-36.7-7.8-105.9-8.8-172.8,45.9c-42.9,35.1-67.9,76.8-82.5,111.9c0,0-0.1,0.2-0.2,0.6c-2.1,6.5-16.2,61.6,74.3,165.6
	c43.9,50.5,85.5,86.7,123.4,107.7c0.1-0.3,0.2-0.5,0.4-0.7c0.3-0.4,0.6-0.7,0.9-1c0.1-0.4,0.3-0.8,0.6-1.2
	c3.7-5.3,17.4-2.1,30.7,7.2c6.6,4.6,11.8,9.9,15,14.6c4.1,0.9,8.1,1.6,12.1,2.1c1.6-0.8,4.3-0.6,7.5,0.6c6.6,0.3,13.1,0,19.3-1
	v-50.6c-3.8,3-8,6-12.6,8.9c-26.9,16.9-61.4,5-61.4,5s27.8,4.2,60.3-15c4.9-2.9,9.4-5.9,13.6-8.8v-27.8
	c-12.9,11.2-28,20.9-45.8,27.6c-55.2,20.8-89.6-22.5-89.6-22.5l-8.2-12.8c-0.3-0.4-0.4-0.6-0.4-0.6l-1-3.7
	c3.3,13,11.9,34.3,11.9,34.3s-21.7-19.9-24.8-38c-2.2-12.7,3.1-24.2,6.1-29.4c-20-4.9-40.1-18.4-54.9-38.9
	c-27.6-38.3-26.2-86.5,3.2-107.7c29.4-21.2,75.5-7.3,103.2,31c27.6,38.3,26.2,86.5-3.2,107.7c-13.1,9.4-29.5,11.9-46.1,8.4
	c0.4,5,1.3,14.4,2.6,23c7.1-0.5,62.6-4.9,116.2-35.7c11.3-6.5,21.5-13.4,30.6-20.2V354c-28.1,7.2-63.1-7.8-85.7-39.1
	c-27.6-38.3-26.2-86.5,3.2-107.7c22.9-16.5,55.9-11.7,82.5,9.3v-76.7C1240.2,137.8,1238.8,136.4,1237.8,135.7z M1015.1,302.3
	c-11.6,34.4-10.2,51.9-10.2,51.9l-7.4-8.1l-1.8,10.1l-21.4-3c0,0-2.6-35.6,8.8-71c11.7-36.4,36.4-66.4,36.4-66.4l10.6,9.9
	c0,0-4.4,7.5-9.6,17.2c-4.4,8.1-5.3,12.8-5.3,12.8l19-24.9l12.2,12.1C1046.5,242.9,1026.7,267.9,1015.1,302.3z M1212.6,188
	c0,0-19.3-7.3-54.9-0.2c-35.6,7.1-63,23.5-63,23.5l-10.5-13.7l32.8-16.6c0,0-10.5,1.2-19.1,4.5c-10.3,4-18.2,7.4-18.2,7.4l-8.4-11.8
	c0,0,32.8-20.7,70.5-27.6c36.6-6.8,71.5,0.4,71.5,0.4l0.3,21.6l-13.2,4.1L1212.6,188z"/>
<linearGradient id="SVGID_16_" gradientUnits="userSpaceOnUse" x1="1698.2158" y1="1908.118" x2="1698.2158" y2="2448.9255" gradientTransform="matrix(0.7509 -0.6605 0.6605 0.7509 -1568.9117 -72.9049)">
	<stop  offset="0" style="stop-color:#DCED00"/>
	<stop  offset="1" style="stop-color:#9CA000"/>
</linearGradient>
<path class="st31" d="M1194.2,511.9c14.5-4.9,27.4-12.6,38.8-21.9c-5.4,4.2-11.2,8.2-17.4,11.8c-18.2,10.6-34.6,14.9-48.9,15.3
	l0.2,0.2C1175.1,516.9,1184.2,515.2,1194.2,511.9z"/>
<linearGradient id="SVGID_17_" gradientUnits="userSpaceOnUse" x1="1649.5273" y1="1908.118" x2="1649.5273" y2="2448.9255" gradientTransform="matrix(0.7509 -0.6605 0.6605 0.7509 -1568.9117 -72.9049)">
	<stop  offset="0" style="stop-color:#DCED00"/>
	<stop  offset="1" style="stop-color:#9CA000"/>
</linearGradient>
<path class="st32" d="M1166.7,517.3c-0.3,0-1.9-0.1-4.1-0.2c-5.3-0.1-10.3-0.8-15-1.8c-2-0.4-3.8-0.8-5.3-1.4
	c-13.9-4.1-24.7-11.5-32.2-18c-0.3-0.3-0.4-0.4-0.4-0.4c-7.6-6.8-11.7-12.5-11.7-12.5l0.4,0.6
	C1101.6,488.4,1123.6,519.4,1166.7,517.3z"/>
<path class="st13" d="M1095.1,469.7c0.6,3.5,1.2,6.8,1.9,9.6c0,0,0,0,0,0l1,3.7c0,0,4,5.7,11.7,12.5c0,0,2.8-1.3,7.8-3.4L1106,476
	l-3.3-4.6c0,0,24.4,1.4,81.3-22.7c22.9-9.7,42.2-21.4,58-33v-2c-9.1,6.9-19.3,13.8-30.6,20.2
	C1157.8,464.8,1102.2,469.2,1095.1,469.7z"/>
<path class="st13" d="M1231.7,426.7l-0.9,1.3l-6.4,9.4l-12.8,1.8l-4.6,0.6l-7.7,5.4l-15.1,10.5l-5-2.1l-1.7-0.7l-4.5,3l-19.7,13.5
	l-8.9-3.9l-2.6-1.1l-1.1,2.2l-9.6,19.8c21.1-8.5,54.4-20.8,84.5-27.8c9.2-2.1,17-3.9,23.5-5.4l-1.4-3.7l4.1,2.1v-26l-8.9,0.9
	L1231.7,426.7z"/>
<path class="st13" d="M1194.2,31.1c-8.1,6.4,15.3,84.2,19,96.4c0.3,1,0.5,1.6,0.5,1.6l24.1,6.6c0,0,0,0,0,0c0.1-0.1,1.7-1,4.2-2.5
	v-26.9c-4.3,2.4-7,4-7,4s2.7-3.5,7-9.2V59.3c-9.9,22.5-16.7,42.3-16.7,42.3S1203,24.2,1194.2,31.1z"/>
<path class="st13" d="M1213.4,153.7c0,0-35-7.1-71.5-0.4c-37.6,7-70.5,27.6-70.5,27.6l8.4,11.8c0,0,8-3.4,18.2-7.4
	c8.6-3.3,19.1-4.5,19.1-4.5l-32.8,16.6l10.5,13.7c0,0,27.4-16.4,63-23.5c35.6-7.1,54.9,0.2,54.9,0.2l-12.1-8.5l13.2-4.1
	L1213.4,153.7z"/>
<path class="st13" d="M1015.2,255.6c0,0,0.9-4.8,5.3-12.8c5.2-9.7,9.6-17.2,9.6-17.2l-10.6-9.9c0,0-24.7,29.9-36.4,66.4
	c-11.4,35.4-8.8,71-8.8,71l21.4,3l1.8-10.1l7.4,8.1c0,0-1.3-17.5,10.2-51.9c11.6-34.4,31.3-59.4,31.3-59.4l-12.2-12.1L1015.2,255.6z
	"/>
<path class="st33" d="M1159.5,207.3c-29.4,21.2-30.8,69.4-3.2,107.7c22.6,31.3,57.6,46.3,85.7,39.1v-8.6
	c-24.8,12.6-60-0.7-82.2-31.6c-0.7-1-1.4-2-2.1-3.1c-23.3-34.9-21.4-77,4.3-94.1c22.7-15.2,56.5-5.5,80.1,21.3v-21.4
	C1215.4,195.6,1182.4,190.8,1159.5,207.3z"/>
<path class="st33" d="M1092.5,446.7c16.6,3.5,33,1,46.1-8.4c29.4-21.2,30.8-69.4,3.2-107.7c-27.6-38.3-73.8-52.1-103.2-31
	c-29.4,21.2-30.8,69.4-3.2,107.7c14.8,20.5,34.9,34,54.9,38.9c1.1-1.9,1.9-3.1,1.9-3.1S1092.3,444.5,1092.5,446.7z M1047.4,398.7
	c-24.5-34-24.2-76.2,0.8-94.2c25-18,65.1-5,89.7,29c0.7,1,1.4,2,2.1,3.1c22.4,33.5,21.3,73.7-2.9,91.2
	C1112.1,445.7,1071.9,432.7,1047.4,398.7z"/>
<path class="st10" d="M1137.1,427.7c24.2-17.5,25.3-57.7,2.9-91.2c21.2,31.8,20.2,70.1-2.9,86.7c-23.8,17.2-62,4.8-85.4-27.6
	s-23-72.6,0.8-89.8c23.8-17.2,62-4.8,85.4,27.6c-24.5-34-64.7-47-89.7-29c-25,18-25.3,60.2-0.8,94.2
	C1071.9,432.7,1112.1,445.7,1137.1,427.7z"/>
<path class="st11" d="M1052.5,305.9c-23.8,17.2-24.1,57.3-0.8,89.8s61.6,44.8,85.4,27.6c23.1-16.6,24.1-54.9,2.9-86.7
	c-0.7-1-1.4-2-2.1-3.1C1114.5,301.1,1076.3,288.7,1052.5,305.9z M1130.7,328.6c5.2,7.2,4.8,16.8-0.3,23.6c9,19,6.8,39.5-6.5,49.1
	c-15.7,11.3-40.9,3.2-56.3-18.2c-15.4-21.4-15.2-47.9,0.5-59.2c9.7-7,23-6.5,35.5-0.1C1112.4,317.8,1124.5,319.9,1130.7,328.6z"/>
<path class="st11" d="M1126.2,356.2c-1.3,0.9-2.6,1.6-4,2.2c4.9,12.7,2.9,25.8-5.9,32.2c-11.2,8.1-29.3,2.3-40.3-13
	c-11-15.3-10.9-34.2,0.4-42.3c5.5-4,12.7-4.6,19.8-2.4c1.3-3.4,3.6-6.5,6.8-8.8c0.2-0.1,0.4-0.2,0.5-0.4
	c-12.4-6.4-25.8-6.9-35.5,0.1c-15.7,11.3-15.9,37.8-0.5,59.2c15.4,21.4,40.6,29.5,56.3,18.2c13.3-9.6,15.5-30.1,6.5-49.1
	C1129.3,353.7,1127.9,355.1,1126.2,356.2z"/>
<linearGradient id="SVGID_18_" gradientUnits="userSpaceOnUse" x1="1737.4003" y1="1970.8086" x2="1807.4497" y2="1970.8086" gradientTransform="matrix(0.8111 -0.5849 0.5849 0.8111 -1494.2072 -199.2292)">
	<stop  offset="0" style="stop-color:#A43113"/>
	<stop  offset="1" style="stop-color:#6F160D"/>
</linearGradient>
<path class="st34" d="M1126.2,356.2c-1.3,0.9-2.6,1.6-4,2.2c4.9,12.7,2.9,25.8-5.9,32.2c-11.2,8.1-29.3,2.3-40.3-13
	c-11-15.3-10.9-34.2,0.4-42.3c5.5-4,12.7-4.6,19.8-2.4c1.3-3.4,3.6-6.5,6.8-8.8c0.2-0.1,0.4-0.2,0.5-0.4
	c-12.4-6.4-25.8-6.9-35.5,0.1c-15.7,11.3-15.9,37.8-0.5,59.2c15.4,21.4,40.6,29.5,56.3,18.2c13.3-9.6,15.5-30.1,6.5-49.1
	C1129.3,353.7,1127.9,355.1,1126.2,356.2z"/>
<path class="st13" d="M1076.5,335.3c-11.2,8.1-11.4,27-0.4,42.3c11,15.3,29.1,21.1,40.3,13c8.8-6.4,10.8-19.4,5.9-32.2
	c-8.3,3.5-18.2,0.9-23.7-6.7c-4.1-5.7-4.7-12.8-2.4-18.8C1089.1,330.7,1082,331.3,1076.5,335.3z M1095.9,365.4
	c3.2-2.3,7.8-1.6,10.1,1.6c2.3,3.2,1.6,7.8-1.6,10.1c-3.2,2.3-7.8,1.6-10.1-1.6C1091.9,372.2,1092.7,367.7,1095.9,365.4z"/>
<path class="st11" d="M1103.6,323.8c-0.2,0.1-0.4,0.2-0.5,0.4c-3.2,2.3-5.5,5.4-6.8,8.8c-2.4,6.1-1.7,13.2,2.4,18.8
	c5.5,7.6,15.4,10.2,23.7,6.7c1.4-0.6,2.7-1.3,4-2.2c1.6-1.2,3-2.6,4.2-4.1c5.1-6.8,5.5-16.3,0.3-23.6
	C1124.5,319.9,1112.4,317.8,1103.6,323.8z"/>
<path class="st11" d="M1104.4,377.1c3.2-2.3,4-6.9,1.6-10.1c-2.3-3.2-6.9-4-10.1-1.6c-3.2,2.3-4,6.9-1.6,10.1
	C1096.6,378.7,1101.1,379.5,1104.4,377.1z"/>
<path class="st10" d="M1159.8,313.8c22.2,30.9,57.4,44.3,82.2,31.6v-4c0,0,0,0,0,0C1218.3,357.3,1182.2,344.9,1159.8,313.8z"/>
<path class="st10" d="M1161.9,216.7c-25.6,17.1-27.5,59.2-4.3,94.1c-22.2-33.2-20.4-73.4,4.1-89.7c23-15.3,57.8-4,80.3,25.1v-8.3
	C1218.4,211.2,1184.7,201.5,1161.9,216.7z"/>
<path class="st11" d="M1161.7,221.1c-24.4,16.3-26.2,56.4-4.1,89.7c0.7,1,1.4,2.1,2.1,3.1c22.4,31,58.6,43.4,82.2,27.7c0,0,0,0,0,0
	v-65c-1.1,1.3-2.4,2.5-3.9,3.5c-0.3,0.2-0.7,0.4-1,0.6c4.6,16.8,0.8,33.1-11,40.9c-16.1,10.7-41,1.7-55.6-20.2
	c-14.6-21.9-13.4-48.4,2.7-59.1c11.8-7.9,28.3-5.1,42,5.6c0.3-0.2,0.6-0.5,1-0.7c8.4-5.6,19.5-3.9,25.9,3.5v-4.3
	C1219.5,217.1,1184.7,205.8,1161.7,221.1z"/>
<path class="st11" d="M1218.7,310.7c-11.5,7.7-29.3,1.2-39.8-14.5c-10.5-15.7-9.6-34.6,1.9-42.3c7.8-5.2,18.4-3.9,27.8,2.3
	c1.3-3.3,3.5-6.3,6.5-8.5c-13.7-10.6-30.2-13.4-42-5.6c-16.1,10.7-17.3,37.2-2.7,59.1c14.6,21.9,39.5,31,55.6,20.2
	c11.8-7.9,15.6-24.2,11-40.9c-3.1,1.8-6.6,2.7-10,2.7C1229.6,294.6,1226.7,305.3,1218.7,310.7z"/>
<linearGradient id="SVGID_19_" gradientUnits="userSpaceOnUse" x1="-815.7325" y1="1917.2766" x2="-745.6838" y2="1917.2766" gradientTransform="matrix(-0.832 0.5548 0.5548 0.832 -513.624 -880.158)">
	<stop  offset="0" style="stop-color:#A43113"/>
	<stop  offset="1" style="stop-color:#6F160D"/>
</linearGradient>
<path class="st35" d="M1218.7,310.7c-11.5,7.7-29.3,1.2-39.8-14.5c-10.5-15.7-9.6-34.6,1.9-42.3c7.8-5.2,18.4-3.9,27.8,2.3
	c1.3-3.3,3.5-6.3,6.5-8.5c-13.7-10.6-30.2-13.4-42-5.6c-16.1,10.7-17.3,37.2-2.7,59.1c14.6,21.9,39.5,31,55.6,20.2
	c11.8-7.9,15.6-24.2,11-40.9c-3.1,1.8-6.6,2.7-10,2.7C1229.6,294.6,1226.7,305.3,1218.7,310.7z"/>
<path class="st13" d="M1180.9,253.9c-11.5,7.7-12.4,26.6-1.9,42.3c10.5,15.7,28.3,22.2,39.8,14.5c8-5.3,10.8-16.1,8.3-27.4
	c-6.4,0-12.7-3.1-16.5-8.8c-3.7-5.6-4.2-12.4-1.9-18.2C1199.3,250,1188.7,248.7,1180.9,253.9z M1202.2,282.6c3.3-2.2,7.8-1.3,10,2
	c2.2,3.3,1.3,7.8-2,10c-3.3,2.2-7.8,1.3-10-2C1198,289.4,1198.9,284.9,1202.2,282.6z"/>
<path class="st11" d="M1216.1,247c-0.3,0.2-0.7,0.5-1,0.7c-3,2.3-5.2,5.2-6.5,8.5c-2.3,5.8-1.8,12.6,1.9,18.2
	c3.8,5.7,10.1,8.8,16.5,8.8c3.4,0,6.8-0.9,10-2.7c0.3-0.2,0.7-0.4,1-0.6c1.5-1,2.8-2.2,3.9-3.5v-26
	C1235.6,243.1,1224.5,241.4,1216.1,247z"/>
<path class="st11" d="M1210.3,294.7c3.3-2.2,4.2-6.7,2-10c-2.2-3.3-6.7-4.2-10-2c-3.3,2.2-4.2,6.7-2,10
	C1202.5,296,1207,296.9,1210.3,294.7z"/>
<path class="st36" d="M1215.7,458.7c-30.1,6.9-63.4,19.3-84.5,27.8l-7.1,14.7l-6.5-9.1c-4.9,2.1-7.8,3.4-7.8,3.4s0.2,0.2,0.4,0.4
	c7.5,6.5,18.4,13.9,32.2,18c0,0,0,0,0,0l4.7-22l19.6,25.2c14.3-0.4,30.7-4.6,48.9-15.3c6.2-3.6,12-7.6,17.4-11.8
	c3.1-2.6,6.2-5.3,9.1-8.1v-20.8l-2.8-7.7C1232.6,454.9,1224.9,456.6,1215.7,458.7z"/>
<path class="st36" d="M1162.7,517c-3.9-0.3-9.9-0.8-15-1.8C1152.4,516.3,1157.4,516.9,1162.7,517z"/>
<path class="st37" d="M1098.5,483.6l-0.4-0.6C1098.1,483,1098.2,483.2,1098.5,483.6z"/>
<path class="st37" d="M1194.2,511.9c-9.9,3.3-19,5-27.4,5.4l0,0c0,0,0,0-0.1,0c-43.1,2.1-65.1-28.9-68.3-33.7l8.2,12.8
	c0,0,34.3,43.3,89.6,22.5c17.8-6.7,32.9-16.4,45.8-27.6v-9.6c-2.9,2.8-5.9,5.5-9.1,8.1C1221.6,499.3,1208.7,507,1194.2,511.9z"/>
<path class="st33" d="M1222.7,580.8c2.3,0.9,4.8,2.2,7.3,3.9c6.8,4.8,10.8,10.9,8.9,13.6c-0.1,0.2-0.3,0.4-0.5,0.5
	c-0.1,0.2-0.2,0.4-0.3,0.6c-1.9,2.7-9,1.1-15.8-3.7c-6.8-4.8-10.8-10.9-8.9-13.6c0.1-0.2,0.3-0.4,0.5-0.5c0.1-0.2,0.2-0.4,0.3-0.6
	c0.2-0.4,0.6-0.6,1-0.8c-4-0.5-8-1.1-12.1-2.1c3.1,4.8,4.2,9.1,2.3,11.7c-0.3,0.4-0.6,0.7-0.9,1c-0.1,0.4-0.3,0.8-0.6,1.2
	c-3.7,5.3-17.4,2.1-30.7-7.2c-12.7-8.9-20.3-20-17.7-25.6c-37.9-21-79.5-57.2-123.4-107.7c-90.5-104-76.4-159.2-74.3-165.6
	c-9.3,22.5-14.4,42.3-17.1,55.8c0.7,0.4,1,0.6,1,0.6l2.1,31.4c14.2,22.5,51.8,66.8,106.5,123.4c-5.1-9.2-8.3-15-8.3-15
	c6.7-0.1,55.1,47.9,55.1,47.9s2.9,8.8,6.9,20.8c52,48.3,103.1,76.4,138.1,91.8v-62.7C1235.8,580.8,1229.3,581.1,1222.7,580.8z
	 M1135.6,566.4c-0.1,0.1-0.3,0.2-0.4,0.3c-0.1,0.2-0.2,0.3-0.3,0.4c-1.7,1.7-6.7-0.4-11-4.8c-4.3-4.4-6.4-9.3-4.7-11
	c0.1-0.1,0.3-0.2,0.4-0.3c0.1-0.2,0.2-0.3,0.3-0.4c1.7-1.7,6.7,0.4,11,4.8C1135.3,559.7,1137.4,564.7,1135.6,566.4z M1225.3,616.5
	c-0.1,0.1-0.2,0.3-0.3,0.4c-0.1,0.2-0.1,0.3-0.2,0.4c-1.4,2-6.4,0.8-11.3-2.6c-4.9-3.4-7.7-7.8-6.4-9.7c0.1-0.1,0.2-0.3,0.3-0.4
	c0.1-0.2,0.1-0.3,0.2-0.4c1.4-2,6.4-0.8,11.3,2.6C1223.8,610.2,1226.6,614.5,1225.3,616.5z"/>
<path class="st13" d="M940.6,341.7c-9-5-73.5-40.2-87.3-30.3c-14.8,10.7,71,40.7,71,40.7s-120.3,40.9-112,67.2
	c8.3,26.3,112.1-50.2,112.1-50.2s-61.7,61.3-52.4,71.9c9.3,10.6,71.7-67.4,71.7-67.4l0,0l-2.1-31.4
	C941.6,342.3,941.2,342.1,940.6,341.7z"/>
<path class="st33" d="M1041.9,482c0,0,3.2,5.8,8.3,15c19.1,34.5,64.7,116.7,67.4,122.6c3.4,7.4-2.9,19.8-10,26.8
	c-7.1,7-18.1,14.1-16.3,16.7c1.7,2.6,14.2-5.9,20.7-12.1c6.5-6.1,8-12.5,8-12.5s0.4,7.7-5,15c-6.7,9-18.8,14.5-19,16.6
	c-0.2,2.2,12.4,0.5,22.5-8.8c7.4-6.8,9.6-12.9,9.6-12.9s0.7,7.2-5.3,14.8c-6,7.6-13.8,10.3-14.3,14.3c-0.5,3.9,13.9-0.5,20.5-8.2
	c6.6-7.8,9.1-33.2,9.1-33.2s1.2,15.1,3.9,19.6c2.7,4.4,9.4,3.6,9.4,3.6s-4.4-8.3-5.1-17.4c-0.8-9.1-17.9-22.8-19.7-25.5
	c-1.2-1.8-14.3-40.7-22.6-65.7c-4-12-6.9-20.8-6.9-20.8S1048.5,481.9,1041.9,482z"/>
<path class="st11" d="M1242,425.8v-5c-2.9,1.9-5.9,3.9-8.9,5.9L1242,425.8z"/>
<path class="st11" d="M1230.8,428c-2,1.3-4.1,2.6-6.2,3.9c-4.1,2.6-8.5,5-13,7.3l12.8-1.8L1230.8,428z"/>
<path class="st11" d="M1199.2,445.2c-6.6,3-13.4,5.8-20.1,8.4l5,2.1L1199.2,445.2z"/>
<path class="st11" d="M1173,456c-10,3.7-19.8,6.9-28.6,9.6l8.9,3.9L1173,456z"/>
<path class="st11" d="M1131.2,486.5l9.6-19.8c-20.2,6.1-34.8,9.3-34.8,9.3l11.6,16.1l6.5,9.1L1131.2,486.5z"/>
<path class="st10" d="M1102.7,471.5l3.3,4.6c0,0,14.6-3.3,34.8-9.3l1.1-2.2l2.6,1.1c8.8-2.7,18.6-5.9,28.6-9.6l4.5-3l1.7,0.7
	c6.7-2.6,13.5-5.4,20.1-8.4l7.7-5.4l4.6-0.6c4.5-2.4,8.9-4.8,13-7.3c2.1-1.3,4.2-2.6,6.2-3.9l0.9-1.3l1.3-0.1c3.1-2,6.1-3.9,8.9-5.9
	v-4.9c-15.8,11.6-35.2,23.3-58,33C1127.1,472.9,1102.7,471.5,1102.7,471.5z"/>
<path class="st11" d="M1162.7,517c2.2,0.2,3.8,0.2,4.1,0.2c0,0,0.1,0,0.1,0l0,0l-0.2-0.2l-19.6-25.2l-4.7,22c0,0,0,0,0,0
	c1.5,0.5,3.3,1,5.3,1.4C1152.7,516.2,1158.7,516.8,1162.7,517z"/>
<polygon class="st11" points="1239.2,453.4 1242,461.1 1242,451.7 1237.9,449.7 "/>
<path class="st37" d="M1173.1,584.9c13.2,9.3,27,12.5,30.7,7.2c0.3-0.4,0.5-0.8,0.6-1.2c-4.7,3.8-17.4,0.5-29.8-8.1
	c-12.3-8.6-19.9-19.4-17.9-25.2c-0.4,0.3-0.7,0.6-0.9,1c-0.2,0.2-0.3,0.5-0.4,0.7C1152.8,564.9,1160.4,576.1,1173.1,584.9z"/>
<path class="st38" d="M1174.6,582.7c12.3,8.6,25.1,12,29.8,8.1c0.4-0.3,0.7-0.6,0.9-1c1.9-2.7,0.8-6.9-2.3-11.7
	c-3.1-4.8-8.4-10-15-14.6c-13.2-9.3-27-12.5-30.7-7.2c-0.3,0.4-0.5,0.8-0.6,1.2C1154.8,563.3,1162.3,574.1,1174.6,582.7z"/>
<path class="st37" d="M1223.1,594.7c-6.4-4.4-10.2-10-9.2-13c-0.2,0.1-0.3,0.3-0.5,0.5c-1.9,2.7,2.1,8.8,8.9,13.6
	c6.8,4.8,13.9,6.4,15.8,3.7c0.1-0.2,0.2-0.4,0.3-0.6C1236,600.8,1229.4,599.1,1223.1,594.7z"/>
<path class="st38" d="M1214.2,581.1c-0.1,0.2-0.2,0.4-0.3,0.6c-1,3,2.9,8.5,9.2,13c6.4,4.4,12.9,6.2,15.4,4.2
	c0.2-0.1,0.3-0.3,0.5-0.5c1.9-2.7-2.1-8.8-8.9-13.6c-2.5-1.7-5-3.1-7.3-3.9c-3.2-1.2-5.9-1.4-7.5-0.6
	C1214.7,580.4,1214.4,580.7,1214.2,581.1z"/>
<path class="st37" d="M1214,613.8c-4.5-3.2-7.3-7.2-6.6-9.3c-0.1,0.1-0.2,0.2-0.3,0.4c-1.4,2,1.5,6.3,6.4,9.7
	c4.9,3.4,10,4.6,11.3,2.6c0.1-0.1,0.2-0.3,0.2-0.4C1223.2,618.3,1218.5,617,1214,613.8z"/>
<path class="st38" d="M1218.9,606.8c-4.9-3.4-10-4.6-11.3-2.6c-0.1,0.1-0.2,0.3-0.2,0.4c-0.7,2.1,2,6.1,6.6,9.3
	c4.5,3.2,9.2,4.4,11,3c0.1-0.1,0.2-0.2,0.3-0.4C1226.6,614.5,1223.8,610.2,1218.9,606.8z"/>
<path class="st37" d="M1124.6,561.6c-4-4.1-6.1-8.6-5-10.6c-0.2,0.1-0.3,0.2-0.4,0.3c-1.7,1.7,0.3,6.7,4.7,11
	c4.3,4.4,9.2,6.5,11,4.8c0.1-0.1,0.2-0.3,0.3-0.4C1133.2,567.8,1128.6,565.7,1124.6,561.6z"/>
<path class="st38" d="M1119.9,550.6c-0.1,0.1-0.2,0.3-0.3,0.4c-1.1,2,1,6.6,5,10.6c4,4.1,8.6,6.2,10.6,5.1c0.2-0.1,0.3-0.2,0.4-0.3
	c1.7-1.7-0.3-6.7-4.7-11C1126.6,551,1121.7,548.9,1119.9,550.6z"/>
<path class="st33" d="M1095.1,469.7c-1.4-8.6-2.2-18-2.6-23c-0.2-2.2-0.3-3.6-0.3-3.6s-0.8,1.1-1.9,3.1c-3,5.3-8.3,16.7-6.1,29.4
	c3.1,18,24.8,38,24.8,38s-8.6-21.3-11.9-34.3c0,0,0,0,0,0C1096.3,476.5,1095.7,473.2,1095.1,469.7z"/>
<path class="st33" d="M1168.1,543.1c0,0,34.5,11.9,61.4-5c4.6-2.9,8.7-5.8,12.6-8.9v-10c-4.1,2.9-8.6,5.9-13.6,8.8
	C1195.8,547.3,1168.1,543.1,1168.1,543.1z"/>
</svg>
