<?xml version="1.0" encoding="utf-8"?>
<!-- Generator: Adobe Illustrator 23.0.1, SVG Export Plug-In . SVG Version: 6.00 Build 0)  -->
<svg version="1.1" id="Layer_1" xmlns="http://www.w3.org/2000/svg" xmlns:xlink="http://www.w3.org/1999/xlink" x="0px" y="0px"
	 viewBox="0 0 125 125" style="enable-background:new 0 0 125 125;" xml:space="preserve">
<style type="text/css">
	.st0{fill:#FFFAFA;}
	.st1{fill:#F4F2ED;}
	.st2{fill:#CF7307;}
</style>
<path class="st0" d="M24.3,15.3L5.8,84.4c-1.9,7.3,2.4,14.7,9.6,16.7l69.1,18.5c7.3,1.9,14.7-2.4,16.7-9.6l18.5-69.1
	c1.9-7.3-2.4-14.7-9.6-16.7L41,5.6C33.7,3.7,26.3,8,24.3,15.3z"/>
<path class="st1" d="M27.9,9.2c1.2,4.5,4.8,8.3,9.6,9.6l54.9,14.7c7.9,2.1,12.5,10.2,10.4,18.1l-14.7,54.9
	c-1.3,4.9,0.2,9.8,3.5,13.1c4.5-1.2,8.3-4.8,9.6-9.6l18.5-69.1c1.9-7.3-2.4-14.7-9.6-16.7L41,5.6C36.1,4.3,31.2,5.8,27.9,9.2z"/>
<ellipse class="st2" cx="37.8" cy="77" rx="10.2" ry="10.2"/>
<ellipse class="st2" cx="48.3" cy="37.6" rx="10.2" ry="10.2"/>
<ellipse class="st2" cx="77.2" cy="87.6" rx="10.2" ry="10.2"/>
<ellipse class="st2" cx="87.8" cy="48.2" rx="10.2" ry="10.2"/>
</svg>
