<?xml version="1.0" encoding="utf-8"?>
<!-- Generator: Adobe Illustrator 23.0.1, SVG Export Plug-In . SVG Version: 6.00 Build 0)  -->
<svg version="1.1" id="Layer_1" xmlns="http://www.w3.org/2000/svg" xmlns:xlink="http://www.w3.org/1999/xlink" x="0px" y="0px"
	 viewBox="0 0 125 125" style="enable-background:new 0 0 125 125;" xml:space="preserve">
<style type="text/css">
	.st0{fill:#FFFAFA;}
	.st1{fill:#F4F2ED;}
	.st2{fill:#CF7307;}
</style>
<path class="st0" d="M37.6,8l-35,60.6C-1,75,1.1,83.2,7.5,86.9l60.6,35c6.4,3.7,14.5,1.5,18.2-4.9l35-60.6
	c3.7-6.4,1.5-14.5-4.9-18.2l-60.6-35C49.5-0.5,41.3,1.7,37.6,8z"/>
<path class="st1" d="M2.6,68.7C0.2,72.9,0.3,78,2.6,82c4.6,0,9.1-2.4,11.5-6.7L42,27.2c4-6.9,12.8-9.3,19.7-5.3l48.1,27.8
	c4.3,2.5,9.3,2.3,13.3,0c0-4.6-2.4-9.1-6.7-11.5l-60.6-35C49.5-0.5,41.3,1.7,37.7,8L2.6,68.7z"/>
<ellipse class="st2" cx="34.7" cy="69.8" rx="10" ry="10"/>
<ellipse class="st2" cx="89.3" cy="55.2" rx="10" ry="10"/>
<circle class="st2" cx="62" cy="62.5" r="10"/>
</svg>
