<?xml version="1.0" encoding="utf-8"?>
<!-- Generator: Adobe Illustrator 23.0.1, SVG Export Plug-In . SVG Version: 6.00 Build 0)  -->
<svg version="1.1" id="Layer_1" xmlns="http://www.w3.org/2000/svg" xmlns:xlink="http://www.w3.org/1999/xlink" x="0px" y="0px"
	 viewBox="0 0 125 125" style="enable-background:new 0 0 125 125;" xml:space="preserve">
<style type="text/css">
	.st0{fill:#FFFAFA;}
	.st1{fill:#F4F2ED;}
	.st2{fill:#CF7307;}
</style>
<path class="st0" d="M28.1,114.4l75-5.2c7.9-0.6,13.8-7.4,13.3-15.3l-5.2-75c-0.6-7.9-7.4-13.8-15.3-13.3l-75,5.2
	C13,11.4,7.1,18.2,7.6,26.1l5.2,75C13.4,109,20.3,115,28.1,114.4z"/>
<path class="st1" d="M20.9,113c4.1-2.8,6.6-7.6,6.3-12.9L23,40.6C22.4,32,28.8,24.6,37.4,24l59.6-4.2c5.3-0.4,9.7-3.6,11.9-8
	c-2.8-4.1-7.6-6.6-12.9-6.3l-75,5.2C13,11.4,7.1,18.2,7.6,26.1l5.2,75C13.2,106.4,16.4,110.8,20.9,113z"/>
<ellipse class="st2" cx="63.4" cy="59.8" rx="10.7" ry="10.7"/>
</svg>
