<?xml version="1.0" encoding="utf-8"?>
<!-- Generator: Adobe Illustrator 23.0.1, SVG Export Plug-In . SVG Version: 6.00 Build 0)  -->
<svg version="1.1" id="Layer_1" xmlns="http://www.w3.org/2000/svg" xmlns:xlink="http://www.w3.org/1999/xlink" x="0px" y="0px"
	 viewBox="0 0 721 125" style="enable-background:new 0 0 721 125;" xml:space="preserve">
<style type="text/css">
	.st0{fill:#1C184C;}
</style>
<g>
	<path class="st0" d="M32.3,77.5l4.8,17.9L6,101.5L0,21.6c53-8.6,80.9,0.2,83.5,26.2C83.6,67.7,66.5,77.6,32.3,77.5z M24.1,42.1
		l3.3,11.6c21.5,0,31.6-2.8,30.3-8.5C56.5,39.6,45.3,38.6,24.1,42.1z"/>
	<path class="st0" d="M114.3,18.4l6.1,80.5l-33.8,6.4l1.6-84.8L114.3,18.4z"/>
	<path class="st0" d="M186.6,7.2l1.6,31.6l-37.1,4l0.5,7.2l24.4-2.3l2.1,21.6l-25.4,1.9l0.4,5.9l36.1-2.7l5.4,27.2l-71.1,2.4
		l7.2-86.2L186.6,7.2z"/>
	<path class="st0" d="M241.5,43.4l2.9,50.9l-32.4,8.4l5.6-60.8l-24.4-2.1l1.9-22.1l70-4.2l2.6,32.7L241.5,43.4z"/>
	<path class="st0" d="M293.4,22l26.2-4c9.2,54-2.7,81.8-35.8,83.6c-22.1,0-34-11.9-35.6-35.8l26.7-9c-0.5,13.9,2.5,20.9,9,20.9
		C296.8,74.3,300,55.7,293.4,22z"/>
	<path class="st0" d="M387,7.2l1.6,31.6l-37.1,4l0.5,7.2l24.4-2.3l2.1,21.6L353,71.3l0.4,5.9l36.1-2.7l5.4,27.2l-71.1,2.4l7.2-86.2
		L387,7.2z"/>
	<path class="st0" d="M413.3,68.5c-14.4-2-20.7-10.9-19.1-26.8c1.7-15.8,20.1-25.2,55.4-28.1l5,27c-17.5-0.4-26.8,1.7-28.1,6.2
		s5.4,7.1,20.1,7.8c14.6,0.7,21.8,9.6,21.5,26.7c-0.3,17.2-19.6,26.3-57.9,27.5l-10.6-28.2c19.6,2.1,30.3,1.1,32.3-3
		C434,73.5,427.7,70.5,413.3,68.5z"/>
	<path class="st0" d="M471.6,101.5l2.2-77.3c28.5-11.6,48-12.1,58.7-1.7c10.7,10.5,9.3,21-4.1,31.6c20.3,6.2,26.9,16.4,19.7,30.6
		C540.9,98.9,515.4,104.5,471.6,101.5z M494.7,47.3c12.3-2.3,18.4-5.8,18.1-10.5c-0.2-4.7-6.5-5.4-18.9-2.2L494.7,47.3z M497.6,82.7
		c18-0.7,27.1-3.9,27.1-9.4c0.1-5.6-9.3-8.2-28-8L497.6,82.7z"/>
	<path class="st0" d="M580.5,89.6l-4.2,11.9l-23.5-14.2L582.3,18l22.4-1.6L640,88.2l-27.9,13.3L606,84.8L580.5,89.6z M600.9,63.4
		l-6.7-21.6l-7.9,23.9L600.9,63.4z"/>
	<path class="st0" d="M664.8,48.7L684,12.6l36.6,5.4l-34.3,41.8l31.8,19.8l-27.4,22l-23.9-29.9l4.2,24.5l-28.1,5.4V18l19,2.1
		L664.8,48.7z"/>
</g>
</svg>
