<?xml version="1.0" encoding="utf-8"?>
<!-- Generator: Adobe Illustrator 23.0.1, SVG Export Plug-In . SVG Version: 6.00 Build 0)  -->
<svg version="1.1" id="Layer_1" xmlns="http://www.w3.org/2000/svg" xmlns:xlink="http://www.w3.org/1999/xlink" x="0px" y="0px"
	 viewBox="0 0 50 50" style="enable-background:new 0 0 50 50;" xml:space="preserve">
<style type="text/css">
	.st0{fill:url(#SVGID_1_);}
	.st1{fill:#590800;}
	.st2{fill:#9CA000;}
	.st3{fill:#CAE7EF;}
	.st4{fill:#FFFFFF;}
	.st5{fill:url(#SVGID_2_);}
	.st6{fill:url(#SVGID_3_);}
	.st7{fill:#8B1229;}
	.st8{fill:#DCED00;}
	.st9{fill:#7A7A00;}
</style>
<linearGradient id="SVGID_1_" gradientUnits="userSpaceOnUse" x1="0" y1="25" x2="50" y2="25">
	<stop  offset="0" style="stop-color:#DCED00"/>
	<stop  offset="1" style="stop-color:#9CA000"/>
</linearGradient>
<rect class="st0" width="50" height="50"/>
<path class="st1" d="M32.8,32.2l-0.3,1.1c0,0-2.4,2-6,2.9c0,0,0,0,0,0c-1.9,0.5-4.1,0.8-6.5,0.3c-4.7-0.9-5.9-4.1-6.1-6c0,0,0,0,0,0
	c-0.1-0.8,0-1.4,0-1.4l0.5-1c0,0,3.8,3,9,4.1C28.7,33.3,32.8,32.2,32.8,32.2z"/>
<path class="st1" d="M28.2,12.4c0,0,2.5,0.5,5.1,1.9c2.5,1.5,3.3,3,3.3,3l-0.3-1.2l1,0.5l1.1-1.3c0,0-1.7-2.3-4.3-3.9
	c-2.7-1.6-5.8-2.1-5.8-2.1l-0.1,1.2c0,0,0.7,0.2,1.5,0.5c0.7,0.3,1.4,0.7,1.4,0.7L28.3,11L28.2,12.4z"/>
<path class="st1" d="M23.6,11.7c0,0-2.5,0.5-5.1,1.9c-2.5,1.5-3.4,2.6-3.4,2.6l0-0.9l-0.7,0.5l-1.1-1.3c0,0,1.7-2.3,4.3-3.9
	c2.7-1.6,5.8-2.1,5.8-2.1l0.1,1.2c0,0-0.7,0.2-1.5,0.5c-0.7,0.3-1,0.5-1,0.5l2.5-0.5L23.6,11.7z"/>
<ellipse transform="matrix(9.646673e-02 -0.9953 0.9953 9.646673e-02 6.2531 51.87)" class="st2" cx="31.7" cy="22.5" rx="6.9" ry="5.3"/>
<ellipse transform="matrix(9.647015e-02 -0.9953 0.9953 9.647015e-02 -4.0393 38.831)" class="st2" cx="19.4" cy="21.6" rx="6.9" ry="5.3"/>
<g>
	
		<ellipse transform="matrix(9.647918e-02 -0.9953 0.9953 9.647918e-02 -3.71 39.2728)" class="st3" cx="19.8" cy="21.7" rx="6.2" ry="4.5"/>
	
		<ellipse transform="matrix(9.646785e-02 -0.9953 0.9953 9.646785e-02 -3.5373 39.5046)" class="st4" cx="20" cy="21.7" rx="5.9" ry="4.3"/>
	
		<linearGradient id="SVGID_2_" gradientUnits="userSpaceOnUse" x1="-13.791" y1="15.8521" x2="-8.1049" y2="15.8521" gradientTransform="matrix(0.9953 9.650000e-02 -9.650000e-02 0.9953 32.5996 6.9282)">
		<stop  offset="0" style="stop-color:#A43113"/>
		<stop  offset="1" style="stop-color:#6F160D"/>
	</linearGradient>
	<path class="st5" d="M23,21.9c-0.2,2.1-1.6,3.7-3.2,3.6c-1.6-0.2-2.7-2-2.5-4.1c0.2-2.1,1.6-3.7,3.2-3.6
		C22.1,17.9,23.2,19.8,23,21.9z"/>
	
		<ellipse transform="matrix(9.647042e-02 -0.9953 0.9953 9.647042e-02 -3.3638 39.6788)" class="st1" cx="20.2" cy="21.7" rx="2.8" ry="2"/>
	<circle class="st4" cx="22.5" cy="21.3" r="1.6"/>
	<path class="st4" d="M20.5,22.5c0,0.3-0.3,0.6-0.6,0.5c-0.3,0-0.6-0.3-0.5-0.6s0.3-0.6,0.6-0.5C20.3,21.8,20.6,22.1,20.5,22.5z"/>
</g>
<g>
	<path class="st3" d="M26.7,21.8c-0.5,3.4,1.2,6.4,3.7,6.7c2.5,0.3,4.9-2.1,5.3-5.5c0.5-3.4-1.2-6.4-3.7-6.7
		C29.5,16,27.2,18.4,26.7,21.8z"/>
	<path class="st4" d="M26.7,21.8c-0.4,3.2,1.1,6.1,3.5,6.4c2.4,0.3,4.6-2,5.1-5.2c0.4-3.2-1.1-6.1-3.5-6.4
		C29.4,16.2,27.1,18.6,26.7,21.8z"/>
	
		<linearGradient id="SVGID_3_" gradientUnits="userSpaceOnUse" x1="-40.5953" y1="15.3844" x2="-34.9093" y2="15.3844" gradientTransform="matrix(-0.9911 -0.1329 -0.1329 0.9911 -4.5605 2.0114)">
		<stop  offset="0" style="stop-color:#A43113"/>
		<stop  offset="1" style="stop-color:#6F160D"/>
	</linearGradient>
	<path class="st6" d="M28,21.9c-0.3,2.1,0.7,4,2.3,4.2c1.6,0.2,3-1.3,3.3-3.5c0.3-2.1-0.7-4-2.3-4.2C29.8,18.2,28.3,19.8,28,21.9z"
		/>
	<path class="st1" d="M28.8,22c-0.2,1.5,0.5,2.9,1.6,3c1.1,0.1,2.2-1,2.4-2.5c0.2-1.5-0.5-2.9-1.6-3C30.1,19.4,29,20.5,28.8,22z"/>
	<path class="st4" d="M31.9,22.4c-0.1,0.9,0.5,1.7,1.4,1.8c0.9,0.1,1.7-0.5,1.8-1.4s-0.5-1.7-1.4-1.8C32.8,20.9,32,21.5,31.9,22.4z"
		/>
	<path class="st4" d="M30.3,23c0,0.3,0.2,0.6,0.5,0.7c0.3,0,0.6-0.2,0.7-0.5c0-0.3-0.2-0.6-0.5-0.7C30.6,22.4,30.3,22.7,30.3,23z"/>
</g>
<path class="st7" d="M26.5,36.2C26.5,36.2,26.5,36.2,26.5,36.2c-1.9,0.5-4.1,0.8-6.5,0.3c-4.7-0.9-5.9-4.1-6.1-6c0,0,0,0,0,0
	s4.9,1.5,8.4,3.4C25.9,35.9,26.5,36.2,26.5,36.2z"/>
<path class="st8" d="M13.8,29.1l-0.2,1.3c0,0-0.2,4.5,4.3,6.2c6.9,2.6,13.9-2.2,13.9-2.3c0,0,0.7-1,0.7-1s-8,5.4-14.4,2.7
	C13,33.8,13.8,29.1,13.8,29.1z"/>
<path class="st4" d="M32,32.5l-0.6,0.9l-1.8,2.5l-0.8-2.6L28.8,33l-0.5,0.3l-1.6,0.8l-1.7-1.2L25,32.8l-0.1,0L24,33.1l-0.9-0.6
	l-0.3-0.2L22,32.2L20.5,32l-0.2-0.4l-0.1-0.1l-0.4-0.1l-1.9-0.2l-0.3-0.7l-0.1-0.2l-0.2,0.1l-2.9,1.2l0.2-2.5l0-0.5
	c0,0,1.4,1.4,6.2,3C27,33.6,32,32.5,32,32.5z"/>
<path class="st3" d="M32,32.5l-0.6,0.9c-0.4,0-1.3,0-2.5-0.1L28.8,33l-0.5,0.3c-0.9-0.1-2-0.2-3.2-0.4L25,32.8l-0.1,0
	c-0.2,0-0.4-0.1-0.6-0.1c-0.4-0.1-0.8-0.2-1.2-0.3l-0.3-0.2L22,32.2c-0.6-0.2-1.1-0.4-1.7-0.6l-0.1-0.1l-0.4-0.1
	c-0.8-0.3-1.6-0.6-2.3-0.9l-0.1-0.2l-0.2,0.1c-1.6-0.7-2.6-1.3-2.6-1.3l0-0.5c0,0,1.4,1.4,6.2,3C27,33.6,32,32.5,32,32.5z"/>
<path class="st4" d="M14.9,33.4l1.5-1.1l-0.2,2.6C16.2,34.9,15.2,33.9,14.9,33.4z"/>
<path class="st4" d="M23.3,36.7l0.8-2.1l0.8,1.9C24.9,36.5,24.1,36.7,23.3,36.7z"/>
<polygon class="st2" points="28.8,35.2 28.6,36.8 29.6,35.6 29.4,35 "/>
<g>
	<path class="st8" d="M14.8,38.9c0.3,1.3,0.1,2.4-0.4,2.5s-1.2-0.8-1.5-2.1c-0.3-1.3-0.1-2.4,0.4-2.5C13.8,36.7,14.5,37.6,14.8,38.9
		z"/>
	<path class="st9" d="M15,38.8c0.3,1.3,0.1,2.4-0.4,2.5c-0.5,0.1-1.2-0.8-1.5-2.1c-0.3-1.3-0.1-2.4,0.4-2.5
		C14,36.6,14.7,37.6,15,38.8z"/>
</g>
<g>
	<path class="st8" d="M34.4,36.8c-0.1,1,0.2,1.9,0.6,2c0.4,0,0.8-0.8,0.9-1.8c0.1-1-0.2-1.9-0.6-2C34.9,34.9,34.5,35.7,34.4,36.8z"
		/>
	<path class="st9" d="M34.2,36.8c-0.1,1,0.2,1.9,0.6,2c0.4,0,0.8-0.8,0.9-1.8c0.1-1-0.2-1.9-0.6-2S34.3,35.7,34.2,36.8z"/>
</g>
<g>
	<path class="st8" d="M35.4,40.3c-0.1,0.7,0.1,1.3,0.4,1.3c0.3,0,0.6-0.5,0.6-1.2c0.1-0.7-0.1-1.3-0.4-1.3
		C35.7,39.1,35.4,39.6,35.4,40.3z"/>
	<path class="st9" d="M35.3,40.3c-0.1,0.7,0.1,1.3,0.4,1.3c0.3,0,0.6-0.5,0.6-1.2c0.1-0.7-0.1-1.3-0.4-1.3
		C35.6,39.1,35.3,39.6,35.3,40.3z"/>
</g>
<path class="st2" d="M32.5,30.3c0,0,0,1.1,0,2.4c0,1.3-0.3,2.9-0.3,2.9s1-1.4,1.1-2.8C33.4,31.4,32.5,30.3,32.5,30.3z"/>
<path class="st2" d="M15.6,26.4c0,0-1.2,1.5-1.6,2.5c-0.5,1-1.1,2.7-1.1,2.7s-0.3-2.4,0.5-3.6C14.1,26.7,15.6,26.4,15.6,26.4z"/>
<path class="st2" d="M14.9,36.5c0,0,1.5,1.7,4.5,2.3c3.4,0.6,5.6-0.1,5.6-0.1s-2.4,1.3-6,0.8C16.3,39.1,14.9,36.5,14.9,36.5z"/>
</svg>
