<?xml version="1.0" encoding="utf-8"?>
<!-- Generator: Adobe Illustrator 23.0.1, SVG Export Plug-In . SVG Version: 6.00 Build 0)  -->
<svg version="1.1" id="Layer_1" xmlns="http://www.w3.org/2000/svg" xmlns:xlink="http://www.w3.org/1999/xlink" x="0px" y="0px"
	 viewBox="0 0 50 50" style="enable-background:new 0 0 50 50;" xml:space="preserve">
<style type="text/css">
	.st0{fill:url(#SVGID_1_);}
	.st1{fill:url(#SVGID_2_);}
	.st2{fill:#B70400;}
	.st3{fill:#CAE7EF;}
	.st4{fill:#FFFFFF;}
	.st5{fill:url(#SVGID_3_);}
	.st6{fill:#590800;}
	.st7{fill:url(#SVGID_4_);}
	.st8{fill:url(#SVGID_5_);}
	.st9{opacity:0.43;fill:#FFFFFF;}
	.st10{fill:#8C130D;}
	.st11{fill:#FF5B57;}
	.st12{fill:#8C0000;}
</style>
<linearGradient id="SVGID_1_" gradientUnits="userSpaceOnUse" x1="0" y1="25" x2="50" y2="25">
	<stop  offset="0" style="stop-color:#F93D31"/>
	<stop  offset="1" style="stop-color:#B70400"/>
</linearGradient>
<rect class="st0" width="50" height="50"/>
<linearGradient id="SVGID_2_" gradientUnits="userSpaceOnUse" x1="35.6221" y1="4.5427" x2="35.6221" y2="63.8309">
	<stop  offset="0" style="stop-color:#F93D31"/>
	<stop  offset="1" style="stop-color:#B70400"/>
</linearGradient>
<path class="st1" d="M35.6,38.6c0-0.1,0.1-0.2,0.1-0.2C35.6,38.5,35.6,38.5,35.6,38.6z"/>
<path class="st2" d="M22,31.5c-0.3,0.1-0.5,0.3-0.8,0.4C21.5,31.8,21.7,31.7,22,31.5z"/>
<path class="st2" d="M26.1,22.9c0-1.8-0.4-3.5-1-5c-0.2-0.1-0.5-0.3-0.9-0.5c0.9,1.5,1.4,3.4,1.4,5.5c0,4.7-2.8,8.6-6.3,8.6
	S13,27.6,13,22.9c0-3.1,1.2-5.9,3.1-7.4c-0.5-0.1-1-0.1-1.4-0.1C13,17.1,12,19.9,12,22.9c0,5.2,3.2,9.5,7.1,9.5c0.3,0,0.6,0,0.9-0.1
	c1-0.7,2.3-1.6,3.9-2.5C25.2,28.1,26.1,25.6,26.1,22.9z"/>
<path class="st2" d="M27.4,18L27.4,18c-0.4,0.8-0.6,1.8-0.6,2.9c0,2.1,0.8,3.9,2.1,4.9c0,0,0.1-0.1,0.1-0.1
	c-1.1-0.8-1.8-2.4-1.8-4.1c0-2.6,1.6-4.8,3.5-4.8c1.6,0,3,1.5,3.4,3.6c0.1,0.4,0.1,0.8,0.1,1.2c0,0.4,0,0.8-0.1,1.1
	c-0.2,0.9-0.5,1.7-1,2.3c0.2,0,0.4,0.1,0.5,0.1c0,0,0.1,0,0.1,0c0,0,0,0,0-0.1c0.8-1,1.4-2.5,1.4-4.2c0-2.6-1.3-4.8-3.1-5.5
	c-1.2,0.5-2.5,0.9-3.4,1.6C27.9,17.5,27.4,18,27.4,18z"/>
<path class="st2" d="M30.2,26c-0.2,0-0.4,0.1-0.5,0.1c-0.1,0-0.2,0-0.3,0c0,0,0,0,0,0c0.1,0,0.2,0,0.3-0.1C29.9,26,30.1,26,30.2,26
	c0.4-0.1,0.7-0.1,1.1-0.2c0.2,0,0.4-0.1,0.6-0.1c-0.2,0-0.4,0.1-0.7,0.1C30.8,25.9,30.5,25.9,30.2,26z"/>
<path class="st3" d="M25.6,22.9c0-2.1-0.5-4-1.4-5.5c0,0-0.1,0-0.1-0.1C25,18.8,25.6,20.8,25.6,22.9z"/>
<path class="st3" d="M19.6,31c-3.3,0-6-3.6-6-8.1c0-3.2,1.3-6,3.3-7.3c-0.3,0-0.6-0.1-0.8-0.1C14.3,17,13,19.8,13,22.9
	c0,4.7,2.8,8.6,6.3,8.6s6.3-3.8,6.3-8.6C25.6,27.4,22.9,31,19.6,31z"/>
<path class="st4" d="M20.3,16c-1-0.2-2.2-0.3-3.3-0.4c-2,1.3-3.3,4.1-3.3,7.3c0,4.5,2.7,8.1,6,8.1c3.3,0,6-3.6,6-8.1
	c0-2.1-0.6-4.1-1.6-5.5C23,16.9,21.7,16.3,20.3,16z M21.9,27.5c-1.4,0-2.6-1.1-3.1-2.7c0,0-0.1,0-0.1,0c-1.1,0-1.9-0.9-1.9-1.9
	c0-1.1,0.9-1.9,1.9-1.9c0,0,0.1,0,0.1,0c0.5-1.6,1.7-2.7,3.1-2.7c1.9,0,3.4,2.1,3.4,4.6S23.8,27.5,21.9,27.5z"/>
<path class="st4" d="M21.9,18.3c-1.4,0-2.6,1.1-3.1,2.7c0.5,0,1,0.3,1.4,0.7c0.4-1.2,1.2-2.1,2.3-2.1c1.3,0,2.4,1.5,2.4,3.3
	c0,1.8-1.1,3.3-2.4,3.3c-1,0-1.9-0.9-2.3-2.1c-0.3,0.4-0.8,0.7-1.4,0.7c0.5,1.6,1.7,2.7,3.1,2.7c1.9,0,3.4-2.1,3.4-4.6
	S23.8,18.3,21.9,18.3z"/>
<linearGradient id="SVGID_3_" gradientUnits="userSpaceOnUse" x1="18.546" y1="22.9" x2="25.3397" y2="22.9">
	<stop  offset="0" style="stop-color:#A43113"/>
	<stop  offset="1" style="stop-color:#6F160D"/>
</linearGradient>
<path class="st5" d="M21.9,18.3c-1.4,0-2.6,1.1-3.1,2.7c0.5,0,1,0.3,1.4,0.7c0.4-1.2,1.2-2.1,2.3-2.1c1.3,0,2.4,1.5,2.4,3.3
	c0,1.8-1.1,3.3-2.4,3.3c-1,0-1.9-0.9-2.3-2.1c-0.3,0.4-0.8,0.7-1.4,0.7c0.5,1.6,1.7,2.7,3.1,2.7c1.9,0,3.4-2.1,3.4-4.6
	S23.8,18.3,21.9,18.3z"/>
<path class="st6" d="M20.2,24.1c0.4,1.2,1.2,2.1,2.3,2.1c1.3,0,2.4-1.5,2.4-3.3c0-1.8-1.1-3.3-2.4-3.3c-1,0-1.9,0.9-2.3,2.1
	c0.3,0.3,0.4,0.8,0.4,1.2C20.7,23.4,20.5,23.8,20.2,24.1z M21.8,23.1c0.4,0,0.7,0.3,0.7,0.7c0,0.4-0.3,0.7-0.7,0.7
	c-0.4,0-0.7-0.3-0.7-0.7C21.1,23.4,21.4,23.1,21.8,23.1z"/>
<path class="st4" d="M20.2,24.1c0.3-0.3,0.4-0.8,0.4-1.2c0-0.5-0.2-0.9-0.4-1.2c-0.3-0.4-0.8-0.7-1.4-0.7c0,0-0.1,0-0.1,0
	c-1.1,0-1.9,0.9-1.9,1.9c0,1.1,0.9,1.9,1.9,1.9c0,0,0.1,0,0.1,0C19.4,24.8,19.9,24.5,20.2,24.1z"/>
<circle class="st4" cx="21.8" cy="23.8" r="0.7"/>
<path class="st3" d="M27.7,22.7C27.7,22.7,27.7,22.7,27.7,22.7c-0.1-0.1-0.1-0.3-0.1-0.4c0-0.1,0-0.1,0-0.2c0,0,0,0,0,0v0
	c0-0.2,0-0.3,0-0.5c0-2.5,1.5-4.5,3.3-4.5c1.5,0,2.8,1.4,3.2,3.4c-0.4-2.1-1.7-3.6-3.4-3.6c-1.9,0-3.5,2.1-3.5,4.8
	c0,1.8,0.7,3.3,1.8,4.1c0.1-0.1,0.2-0.1,0.3-0.2C28.5,24.9,27.9,23.9,27.7,22.7z"/>
<path class="st3" d="M33.1,25c0.5-0.6,0.8-1.4,1-2.3C34,23.6,33.6,24.4,33.1,25C33.1,25,33.1,25,33.1,25z"/>
<path class="st4" d="M30.9,17c-1.8,0-3.3,2-3.3,4.5c0,0.2,0,0.3,0,0.5v0c0,0,0,0,0,0c0-0.1,0.1-0.2,0.1-0.3c0.1-1.3,0.9-2.3,1.9-2.3
	c1,0,1.9,1.2,1.9,2.6c0,1.4-0.8,2.6-1.9,2.6c-0.8,0-1.5-0.7-1.8-1.8c0-0.1-0.1-0.1-0.1-0.2c0,0,0,0,0,0c0.2,1.2,0.8,2.2,1.6,2.8
	c0.5-0.2,1-0.4,1.7-0.6c0.7-0.1,1.4-0.1,2.1,0c0.5-0.6,0.9-1.4,1.1-2.3c0.1-0.4,0.1-0.7,0.1-1.1c0-0.4,0-0.8-0.1-1.2
	C33.7,18.5,32.4,17,30.9,17z"/>
<path class="st4" d="M28,21.5c0.2-0.7,0.7-1.2,1.3-1.2c0.7,0,1.4,0.8,1.4,1.8c0,0.2,0,0.5-0.1,0.7c0,0,0,0.1,0,0.1
	c-0.2,0.6-0.7,1-1.2,1c-0.5,0-0.9-0.4-1.2-0.9C28,23,27.9,23,27.8,22.9c0.3,1,1,1.8,1.8,1.8c1,0,1.9-1.2,1.9-2.6
	c0-1.4-0.8-2.6-1.9-2.6c-1,0-1.8,1-1.9,2.3C27.8,21.7,27.9,21.6,28,21.5z"/>
<linearGradient id="SVGID_4_" gradientUnits="userSpaceOnUse" x1="27.6967" y1="22.0656" x2="31.4771" y2="22.0656">
	<stop  offset="0" style="stop-color:#A43113"/>
	<stop  offset="1" style="stop-color:#6F160D"/>
</linearGradient>
<path class="st7" d="M28,21.5c0.2-0.7,0.7-1.2,1.3-1.2c0.7,0,1.4,0.8,1.4,1.8c0,0.2,0,0.5-0.1,0.7c0,0,0,0.1,0,0.1
	c-0.2,0.6-0.7,1-1.2,1c-0.5,0-0.9-0.4-1.2-0.9C28,23,27.9,23,27.8,22.9c0.3,1,1,1.8,1.8,1.8c1,0,1.9-1.2,1.9-2.6
	c0-1.4-0.8-2.6-1.9-2.6c-1,0-1.8,1-1.9,2.3C27.8,21.7,27.9,21.6,28,21.5z"/>
<path class="st6" d="M29.2,24c0.5,0,1-0.4,1.2-1c-0.1,0.1-0.2,0.2-0.3,0.2c-0.2,0-0.4-0.2-0.4-0.4c0-0.2,0.2-0.4,0.4-0.4
	c0.2,0,0.4,0.2,0.4,0.4c0,0,0,0,0,0.1c0.1-0.2,0.1-0.4,0.1-0.7c0-1-0.6-1.8-1.4-1.8c-0.6,0-1.1,0.5-1.3,1.2c0.1-0.1,0.3-0.2,0.5-0.2
	c0.5,0,0.9,0.4,0.9,0.9c0,0.5-0.4,0.9-0.9,0.9c-0.2,0-0.3,0-0.4-0.1C28.3,23.6,28.7,24,29.2,24z"/>
<path class="st4" d="M28.1,23.1c0.1,0.1,0.3,0.1,0.4,0.1c0.5,0,0.9-0.4,0.9-0.9c0-0.5-0.4-0.9-0.9-0.9c-0.2,0-0.4,0.1-0.5,0.2
	c-0.1,0.1-0.2,0.2-0.3,0.3c-0.1,0.1-0.1,0.2-0.1,0.3c0,0.1,0,0.1,0,0.2c0,0.2,0,0.3,0.1,0.4c0,0.1,0.1,0.1,0.1,0.2
	C27.9,23,28,23,28.1,23.1z"/>
<path class="st4" d="M30.1,22.4c-0.2,0-0.4,0.2-0.4,0.4c0,0.2,0.2,0.4,0.4,0.4c0.2,0,0.3-0.1,0.3-0.2c0,0,0-0.1,0-0.1c0,0,0,0,0-0.1
	C30.5,22.6,30.3,22.4,30.1,22.4z"/>
<path class="st6" d="M35.5,9.8c0,0-1.9,0.5-4.7,2.6c-2.8,2.1-3.5,4.3-3.5,4.3l0.8-0.4L27.4,18l0,0c0,0,0.5-0.5,1.3-1
	c0.9-0.6,2.2-1.1,3.4-1.6c1.4-0.5,2.6-1,3.2-1.7c0.1-0.1,0.2-0.3,0.3-0.4c0.8-1.1,0.9-2.5,0.9-2.5L36,11l-2,0.5L35.5,9.8z
	 M34.7,11.8c0,0-1.8,0.7-3.5,1.8c-1.6,1-2.6,2.4-2.6,2.4l0.1-0.7l-0.6,0.1c0,0,0.9-1.1,1.9-2c1.2-1.1,2.8-1.8,2.8-1.8l-0.5,0.8
	L34.7,11.8z"/>
<path class="st6" d="M16.9,15.6c1.1,0.1,2.3,0.3,3.3,0.4c1.4,0.2,2.8,0.8,3.8,1.3c0,0,0.1,0.1,0.1,0.1c0.4,0.2,0.7,0.4,0.9,0.5
	c0.3,0.2,0.4,0.3,0.4,0.3c-0.1-1.1-1.2-2.8-1.2-2.8l0.9,0c0,0-2.2-2.6-6.7-3.3c-3.2-0.5-6.1-0.9-6.1-0.9s0.8,2,1.4,2.6
	c0.7,0.8,1.2,0.9,1.2,0.9l-1.4,0.7c0,0,0.4,0,1.1,0.1c0.4,0,0.9,0.1,1.4,0.1C16.4,15.6,16.7,15.6,16.9,15.6z M13.8,12.1l2.6,0.5
	l-2.2-0.9c0,0,3.1,0.2,5.7,1c2.6,0.7,3.9,2,3.9,2l-0.8-0.2l0.6,1.2c0,0-3.3-1.5-5.9-2.1C15.2,13,13.8,12.1,13.8,12.1z"/>
<linearGradient id="SVGID_5_" gradientUnits="userSpaceOnUse" x1="34.9718" y1="4.5427" x2="34.9718" y2="63.8309">
	<stop  offset="0" style="stop-color:#F93D31"/>
	<stop  offset="1" style="stop-color:#B70400"/>
</linearGradient>
<path class="st8" d="M35,34c0.1,0,0.2-0.3,0.1-0.7c0-0.4-0.1-0.7-0.3-0.7c-0.1,0-0.2,0.3-0.1,0.7C34.8,33.7,34.9,34,35,34z"/>
<path class="st9" d="M35,34c0.1,0,0.2-0.3,0.1-0.7c0-0.4-0.1-0.7-0.3-0.7c-0.1,0-0.2,0.3-0.1,0.7C34.8,33.7,34.9,34,35,34z"/>
<path class="st4" d="M26.3,25.7l-0.2,3l0,0c0.6-0.3,1.3-0.5,1.9-0.8L26.3,25.7z"/>
<path class="st4" d="M36.5,24.6l-0.7,2.1l0.2,0c0.6,0.1,1,0.2,1.2,0.2L36.5,24.6z"/>
<path class="st6" d="M35.9,26.8c-1.2-0.1-3.1,0-6.2,0.7c-0.6,0.1-1.1,0.3-1.7,0.5c-0.7,0.2-1.3,0.5-1.9,0.8
	c-0.8,0.3-1.5,0.7-2.2,1.1c-1.6,0.9-2.9,1.8-3.9,2.5c-1.1,0.8-1.7,1.3-1.7,1.3s1.2-0.8,3-1.7c0.2-0.1,0.5-0.3,0.8-0.4
	c2.4-1.2,5.4-2.6,7.9-3.1c4.9-0.9,6.3-0.2,6.3-0.2L35,31.6l2.4-4.5c0,0-0.1,0-0.2-0.1C37,26.9,36.6,26.8,35.9,26.8z"/>
<path class="st10" d="M32.9,11.5c0,0-1.6,0.7-2.8,1.8c-1,0.9-1.9,2-1.9,2l0.6-0.1L28.6,16c0,0,1-1.3,2.6-2.4
	c1.7-1.1,3.5-1.8,3.5-1.8l-2.3,0.5L32.9,11.5z"/>
<path class="st10" d="M23.7,15.6l-0.6-1.2l0.8,0.2c0,0-1.3-1.3-3.9-2c-2.6-0.7-5.7-1-5.7-1l2.2,0.9l-2.6-0.5c0,0,1.4,0.9,4,1.4
	C20.5,14.1,23.7,15.6,23.7,15.6z"/>
<path class="st2" d="M33.1,25C33.1,25,33.1,25,33.1,25c-0.7-0.1-1.4-0.1-2.1,0c-0.7,0.1-1.3,0.3-1.7,0.6c-0.1,0.1-0.2,0.1-0.3,0.2
	c-0.1,0-0.1,0.1-0.1,0.1c0,0,0,0,0,0c-0.5,0.3-0.8,0.6-0.8,0.6s0.4-0.1,1.3-0.3c0,0,0,0,0,0c0.1,0,0.2,0,0.3,0
	c0.2,0,0.3-0.1,0.5-0.1c0.3-0.1,0.6-0.1,1-0.2c0.2,0,0.5-0.1,0.7-0.1c0.2,0,0.3,0,0.5-0.1h0c0.1,0,0.1,0,0.2,0
	c0.3,0,0.5-0.1,0.7-0.1c1-0.1,1.6-0.1,1.6-0.1s-0.5-0.2-1.1-0.3c0,0-0.1,0-0.1,0C33.5,25.1,33.3,25,33.1,25z"/>
<path class="st11" d="M11,39.7c0,0-0.1,0-0.1,0c0,0,0,0-0.1,0v0.1C10.8,39.8,10.9,39.8,11,39.7z"/>
<path class="st11" d="M12.6,39.5c0.1,0,0.1,0,0.2,0c0.1,0,0.1,0,0.2-0.1c-0.8-0.1-1.6-1.7-1.9-3.7c-0.3-2,0.1-3.7,0.8-4.1
	c-0.1,0-0.1,0-0.2,0c-0.4,0.1-0.7,0.5-0.9,1.2v3.5C11.1,38.1,11.9,39.4,12.6,39.5z"/>
<path class="st12" d="M11.1,35.8c0.3,2,1.1,3.5,1.9,3.7c0.1,0,0.1,0,0.2,0c0.9-0.1,1.3-2,1-4.1c-0.3-2.1-1.3-3.8-2.1-3.7
	c-0.1,0-0.1,0-0.2,0.1C11.1,32.1,10.8,33.8,11.1,35.8z"/>
</svg>
